<mxfile host="app.diagrams.net" agent="Mozilla/5.0 (Macintosh; Intel Mac OS X 10_15_7) AppleWebKit/537.36 (KHTML, like Gecko) Chrome/135.0.0.0 Safari/537.36" version="26.1.1">
  <diagram name="Page-1" id="QGLzVjwvEi-ANaYXZzGq">
    <mxGraphModel dx="2607" dy="1384" grid="0" gridSize="10" guides="1" tooltips="1" connect="1" arrows="1" fold="1" page="1" pageScale="1" pageWidth="1920" pageHeight="1200" math="0" shadow="0">
      <root>
        <mxCell id="0" />
        <mxCell id="1" parent="0" />
        <mxCell id="cttu95DVh9DoGcVbJHbc-17" value="" style="rounded=0;whiteSpace=wrap;html=1;fontFamily=Helvetica;fontSize=11;labelBackgroundColor=default;rotation=325;fillColor=#dae8fc;strokeColor=#6c8ebf;opacity=50;" parent="1" vertex="1">
          <mxGeometry x="269.52" y="901.35" width="571.62" height="69.89" as="geometry" />
        </mxCell>
        <mxCell id="MN1CiRBbR8H1fu0ibKLE-16" style="edgeStyle=none;shape=connector;rounded=0;orthogonalLoop=1;jettySize=auto;html=1;exitX=0.5;exitY=0;exitDx=0;exitDy=0;entryX=0.5;entryY=1;entryDx=0;entryDy=0;strokeColor=default;align=center;verticalAlign=middle;fontFamily=Helvetica;fontSize=11;fontColor=default;labelBackgroundColor=default;startFill=0;endArrow=none;" parent="1" source="MN1CiRBbR8H1fu0ibKLE-2" target="MN1CiRBbR8H1fu0ibKLE-13" edge="1">
          <mxGeometry relative="1" as="geometry" />
        </mxCell>
        <mxCell id="MN1CiRBbR8H1fu0ibKLE-19" style="edgeStyle=none;shape=connector;rounded=0;orthogonalLoop=1;jettySize=auto;html=1;exitX=0.5;exitY=0;exitDx=0;exitDy=0;entryX=0.5;entryY=1;entryDx=0;entryDy=0;strokeColor=default;align=center;verticalAlign=middle;fontFamily=Helvetica;fontSize=11;fontColor=default;labelBackgroundColor=default;startFill=0;endArrow=none;" parent="1" source="MN1CiRBbR8H1fu0ibKLE-2" target="MN1CiRBbR8H1fu0ibKLE-9" edge="1">
          <mxGeometry relative="1" as="geometry" />
        </mxCell>
        <mxCell id="MN1CiRBbR8H1fu0ibKLE-21" style="edgeStyle=none;shape=connector;rounded=0;orthogonalLoop=1;jettySize=auto;html=1;exitX=0.5;exitY=0;exitDx=0;exitDy=0;entryX=0.5;entryY=1;entryDx=0;entryDy=0;strokeColor=default;align=center;verticalAlign=middle;fontFamily=Helvetica;fontSize=11;fontColor=default;labelBackgroundColor=default;startFill=0;endArrow=none;" parent="1" source="MN1CiRBbR8H1fu0ibKLE-2" target="MN1CiRBbR8H1fu0ibKLE-5" edge="1">
          <mxGeometry relative="1" as="geometry" />
        </mxCell>
        <mxCell id="MN1CiRBbR8H1fu0ibKLE-27" value="1" style="edgeStyle=none;shape=connector;rounded=0;orthogonalLoop=1;jettySize=auto;html=1;exitX=1;exitY=0.5;exitDx=0;exitDy=0;entryX=0;entryY=0.5;entryDx=0;entryDy=0;strokeColor=default;align=center;verticalAlign=middle;fontFamily=Helvetica;fontSize=11;fontColor=default;labelBackgroundColor=default;startFill=0;endArrow=none;" parent="1" source="MN1CiRBbR8H1fu0ibKLE-2" target="MN1CiRBbR8H1fu0ibKLE-24" edge="1">
          <mxGeometry relative="1" as="geometry" />
        </mxCell>
        <mxCell id="MN1CiRBbR8H1fu0ibKLE-41" value="1" style="edgeStyle=none;shape=connector;rounded=0;orthogonalLoop=1;jettySize=auto;html=1;exitX=0.5;exitY=1;exitDx=0;exitDy=0;entryX=0.5;entryY=0;entryDx=0;entryDy=0;strokeColor=default;align=center;verticalAlign=middle;fontFamily=Helvetica;fontSize=11;fontColor=default;labelBackgroundColor=default;startFill=0;endArrow=none;" parent="1" source="MN1CiRBbR8H1fu0ibKLE-2" target="MN1CiRBbR8H1fu0ibKLE-38" edge="1">
          <mxGeometry relative="1" as="geometry" />
        </mxCell>
        <mxCell id="K9c3699JtVxY8OUxqaeo-57" value="1" style="edgeStyle=none;shape=connector;rounded=0;orthogonalLoop=1;jettySize=auto;html=1;exitX=0;exitY=0.5;exitDx=0;exitDy=0;entryX=1;entryY=0.5;entryDx=0;entryDy=0;strokeColor=default;align=center;verticalAlign=middle;fontFamily=Helvetica;fontSize=11;fontColor=default;labelBackgroundColor=default;startFill=0;endArrow=none;" parent="1" source="MN1CiRBbR8H1fu0ibKLE-2" target="K9c3699JtVxY8OUxqaeo-56" edge="1">
          <mxGeometry relative="1" as="geometry" />
        </mxCell>
        <mxCell id="MN1CiRBbR8H1fu0ibKLE-2" value="&lt;font face=&quot;Amiri&quot; style=&quot;font-size: 14px;&quot; data-font-src=&quot;https://fonts.googleapis.com/css?family=Amiri&quot;&gt;شخص&lt;/font&gt;" style="whiteSpace=wrap;html=1;align=center;" parent="1" vertex="1">
          <mxGeometry x="877" y="106" width="68" height="28" as="geometry" />
        </mxCell>
        <mxCell id="MN1CiRBbR8H1fu0ibKLE-5" value="&lt;font face=&quot;Amiri&quot; data-font-src=&quot;https://fonts.googleapis.com/css?family=Amiri&quot;&gt;نام&lt;/font&gt;" style="ellipse;whiteSpace=wrap;html=1;align=center;" parent="1" vertex="1">
          <mxGeometry x="997.5" y="33.25" width="50" height="29" as="geometry" />
        </mxCell>
        <mxCell id="MN1CiRBbR8H1fu0ibKLE-9" value="&lt;font face=&quot;Amiri&quot;&gt;تاریخ عضویت&lt;/font&gt;" style="ellipse;whiteSpace=wrap;html=1;align=center;" parent="1" vertex="1">
          <mxGeometry x="694" y="28.75" width="61" height="31.5" as="geometry" />
        </mxCell>
        <mxCell id="MN1CiRBbR8H1fu0ibKLE-10" value="&lt;font face=&quot;Amiri&quot;&gt;شماره ملی&lt;/font&gt;" style="ellipse;whiteSpace=wrap;html=1;align=center;" parent="1" vertex="1">
          <mxGeometry x="761" y="29" width="60" height="31" as="geometry" />
        </mxCell>
        <mxCell id="MN1CiRBbR8H1fu0ibKLE-11" value="&lt;font face=&quot;Amiri&quot;&gt;ملیت&lt;/font&gt;" style="ellipse;whiteSpace=wrap;html=1;align=center;" parent="1" vertex="1">
          <mxGeometry x="829" y="31" width="50" height="29" as="geometry" />
        </mxCell>
        <mxCell id="MN1CiRBbR8H1fu0ibKLE-15" style="rounded=0;orthogonalLoop=1;jettySize=auto;html=1;exitX=0.5;exitY=1;exitDx=0;exitDy=0;entryX=0.5;entryY=0;entryDx=0;entryDy=0;endArrow=none;startFill=0;" parent="1" source="MN1CiRBbR8H1fu0ibKLE-12" target="MN1CiRBbR8H1fu0ibKLE-2" edge="1">
          <mxGeometry relative="1" as="geometry" />
        </mxCell>
        <mxCell id="MN1CiRBbR8H1fu0ibKLE-12" value="&lt;font face=&quot;Amiri&quot;&gt;تاریخ تولد&lt;/font&gt;" style="ellipse;whiteSpace=wrap;html=1;align=center;" parent="1" vertex="1">
          <mxGeometry x="886" y="32" width="50" height="29" as="geometry" />
        </mxCell>
        <mxCell id="MN1CiRBbR8H1fu0ibKLE-13" value="&lt;font data-font-src=&quot;https://fonts.googleapis.com/css?family=Amiri&quot; face=&quot;Amiri&quot;&gt;نشانی&lt;/font&gt;" style="ellipse;whiteSpace=wrap;html=1;align=center;" parent="1" vertex="1">
          <mxGeometry x="942" y="33.25" width="50" height="29" as="geometry" />
        </mxCell>
        <mxCell id="MN1CiRBbR8H1fu0ibKLE-17" style="edgeStyle=none;shape=connector;rounded=0;orthogonalLoop=1;jettySize=auto;html=1;exitX=0.5;exitY=0;exitDx=0;exitDy=0;entryX=0.652;entryY=1.028;entryDx=0;entryDy=0;entryPerimeter=0;strokeColor=default;align=center;verticalAlign=middle;fontFamily=Helvetica;fontSize=11;fontColor=default;labelBackgroundColor=default;startFill=0;endArrow=none;" parent="1" source="MN1CiRBbR8H1fu0ibKLE-2" target="MN1CiRBbR8H1fu0ibKLE-11" edge="1">
          <mxGeometry relative="1" as="geometry" />
        </mxCell>
        <mxCell id="MN1CiRBbR8H1fu0ibKLE-18" style="edgeStyle=none;shape=connector;rounded=0;orthogonalLoop=1;jettySize=auto;html=1;exitX=0.5;exitY=0;exitDx=0;exitDy=0;entryX=0.684;entryY=1;entryDx=0;entryDy=0;entryPerimeter=0;strokeColor=default;align=center;verticalAlign=middle;fontFamily=Helvetica;fontSize=11;fontColor=default;labelBackgroundColor=default;startFill=0;endArrow=none;" parent="1" source="MN1CiRBbR8H1fu0ibKLE-2" target="MN1CiRBbR8H1fu0ibKLE-10" edge="1">
          <mxGeometry relative="1" as="geometry" />
        </mxCell>
        <mxCell id="MN1CiRBbR8H1fu0ibKLE-22" value="" style="endArrow=none;html=1;rounded=0;strokeColor=default;align=center;verticalAlign=middle;fontFamily=Helvetica;fontSize=11;fontColor=default;labelBackgroundColor=default;strokeWidth=3;" parent="1" edge="1">
          <mxGeometry width="50" height="50" relative="1" as="geometry">
            <mxPoint x="771.5" y="56" as="sourcePoint" />
            <mxPoint x="804.5" y="56" as="targetPoint" />
          </mxGeometry>
        </mxCell>
        <mxCell id="MN1CiRBbR8H1fu0ibKLE-32" style="edgeStyle=none;shape=connector;rounded=0;orthogonalLoop=1;jettySize=auto;html=1;exitX=0.5;exitY=0;exitDx=0;exitDy=0;entryX=0;entryY=0.5;entryDx=0;entryDy=0;strokeColor=default;align=center;verticalAlign=middle;fontFamily=Helvetica;fontSize=11;fontColor=default;labelBackgroundColor=default;startFill=0;endArrow=none;" parent="1" source="MN1CiRBbR8H1fu0ibKLE-23" target="MN1CiRBbR8H1fu0ibKLE-30" edge="1">
          <mxGeometry relative="1" as="geometry" />
        </mxCell>
        <mxCell id="K9c3699JtVxY8OUxqaeo-6" value="N" style="rounded=0;orthogonalLoop=1;jettySize=auto;html=1;entryX=0.5;entryY=0;entryDx=0;entryDy=0;endArrow=none;startFill=0;exitX=0;exitY=0.5;exitDx=0;exitDy=0;" parent="1" source="MN1CiRBbR8H1fu0ibKLE-23" target="K9c3699JtVxY8OUxqaeo-4" edge="1">
          <mxGeometry relative="1" as="geometry">
            <mxPoint x="1083" y="210" as="sourcePoint" />
          </mxGeometry>
        </mxCell>
        <mxCell id="K9c3699JtVxY8OUxqaeo-39" value="M" style="edgeStyle=none;shape=connector;rounded=0;orthogonalLoop=1;jettySize=auto;html=1;entryX=1;entryY=0.5;entryDx=0;entryDy=0;strokeColor=default;align=center;verticalAlign=middle;fontFamily=Helvetica;fontSize=11;fontColor=default;labelBackgroundColor=default;startFill=0;endArrow=none;exitX=0;exitY=0.5;exitDx=0;exitDy=0;" parent="1" source="MN1CiRBbR8H1fu0ibKLE-23" target="K9c3699JtVxY8OUxqaeo-36" edge="1">
          <mxGeometry x="0.5546" relative="1" as="geometry">
            <mxPoint x="1086" y="224" as="sourcePoint" />
            <Array as="points" />
            <mxPoint as="offset" />
          </mxGeometry>
        </mxCell>
        <mxCell id="hIyoUBsOdVbQB3T2yOtr-34" value="1" style="edgeStyle=none;shape=connector;rounded=0;orthogonalLoop=1;jettySize=auto;html=1;exitX=0.5;exitY=1;exitDx=0;exitDy=0;entryX=0.5;entryY=0;entryDx=0;entryDy=0;strokeColor=default;align=center;verticalAlign=middle;fontFamily=Helvetica;fontSize=11;fontColor=default;labelBackgroundColor=default;startFill=0;endArrow=none;" parent="1" source="MN1CiRBbR8H1fu0ibKLE-23" target="hIyoUBsOdVbQB3T2yOtr-33" edge="1">
          <mxGeometry relative="1" as="geometry" />
        </mxCell>
        <mxCell id="6hZY4R3OLh8B5wYLmfFH-18" value="1" style="edgeStyle=orthogonalEdgeStyle;shape=connector;rounded=0;orthogonalLoop=1;jettySize=auto;html=1;exitX=1;exitY=0.25;exitDx=0;exitDy=0;entryX=0.5;entryY=0;entryDx=0;entryDy=0;strokeColor=default;align=center;verticalAlign=middle;fontFamily=Helvetica;fontSize=11;fontColor=default;labelBackgroundColor=default;startFill=0;endArrow=none;" parent="1" source="MN1CiRBbR8H1fu0ibKLE-23" target="6hZY4R3OLh8B5wYLmfFH-7" edge="1">
          <mxGeometry x="-0.1696" y="-2" relative="1" as="geometry">
            <mxPoint as="offset" />
          </mxGeometry>
        </mxCell>
        <mxCell id="MN1CiRBbR8H1fu0ibKLE-23" value="&lt;font data-font-src=&quot;https://fonts.googleapis.com/css?family=Amiri&quot; face=&quot;Amiri&quot; style=&quot;font-size: 14px;&quot;&gt;بازیکن&lt;/font&gt;" style="whiteSpace=wrap;html=1;align=center;fontFamily=Helvetica;fontSize=11;fontColor=default;labelBackgroundColor=default;" parent="1" vertex="1">
          <mxGeometry x="1086" y="196" width="63" height="28" as="geometry" />
        </mxCell>
        <mxCell id="MN1CiRBbR8H1fu0ibKLE-28" value="1" style="edgeStyle=none;shape=link;rounded=0;orthogonalLoop=1;jettySize=auto;html=1;exitX=0.5;exitY=1;exitDx=0;exitDy=0;entryX=0.5;entryY=0;entryDx=0;entryDy=0;strokeColor=default;align=center;verticalAlign=middle;fontFamily=Helvetica;fontSize=11;fontColor=default;labelBackgroundColor=default;startFill=0;endArrow=none;" parent="1" source="MN1CiRBbR8H1fu0ibKLE-24" target="MN1CiRBbR8H1fu0ibKLE-23" edge="1">
          <mxGeometry relative="1" as="geometry" />
        </mxCell>
        <mxCell id="MN1CiRBbR8H1fu0ibKLE-24" value="&lt;font style=&quot;font-size: 12px;&quot; data-font-src=&quot;https://fonts.googleapis.com/css?family=Amiri&quot; face=&quot;Amiri&quot;&gt;متناظر&lt;/font&gt;" style="shape=rhombus;perimeter=rhombusPerimeter;whiteSpace=wrap;html=1;align=center;fontFamily=Helvetica;fontSize=11;fontColor=default;labelBackgroundColor=default;" parent="1" vertex="1">
          <mxGeometry x="1082.5" y="101" width="70" height="38" as="geometry" />
        </mxCell>
        <mxCell id="MN1CiRBbR8H1fu0ibKLE-43" value="1" style="edgeStyle=none;shape=connector;rounded=0;orthogonalLoop=1;jettySize=auto;html=1;exitX=0.161;exitY=1.008;exitDx=0;exitDy=0;strokeColor=default;align=center;verticalAlign=middle;fontFamily=Helvetica;fontSize=11;fontColor=default;labelBackgroundColor=default;startFill=0;endArrow=none;entryX=1;entryY=1;entryDx=0;entryDy=0;exitPerimeter=0;" parent="1" source="6hZY4R3OLh8B5wYLmfFH-6" target="MN1CiRBbR8H1fu0ibKLE-42" edge="1">
          <mxGeometry x="0.4119" relative="1" as="geometry">
            <mxPoint x="1069" y="444" as="targetPoint" />
            <mxPoint as="offset" />
          </mxGeometry>
        </mxCell>
        <mxCell id="MN1CiRBbR8H1fu0ibKLE-77" value="N" style="edgeStyle=none;shape=link;rounded=0;orthogonalLoop=1;jettySize=auto;html=1;exitX=1;exitY=0.5;exitDx=0;exitDy=0;entryX=0;entryY=0.5;entryDx=0;entryDy=0;strokeColor=default;align=center;verticalAlign=middle;fontFamily=Helvetica;fontSize=11;fontColor=default;labelBackgroundColor=default;startFill=0;endArrow=none;" parent="1" source="MN1CiRBbR8H1fu0ibKLE-33" target="MN1CiRBbR8H1fu0ibKLE-76" edge="1">
          <mxGeometry relative="1" as="geometry" />
        </mxCell>
        <mxCell id="MN1CiRBbR8H1fu0ibKLE-110" style="edgeStyle=none;shape=connector;rounded=0;orthogonalLoop=1;jettySize=auto;html=1;exitX=1;exitY=0;exitDx=0;exitDy=0;entryX=1;entryY=0.5;entryDx=0;entryDy=0;strokeColor=default;align=center;verticalAlign=middle;fontFamily=Helvetica;fontSize=11;fontColor=default;labelBackgroundColor=default;startFill=0;endArrow=none;" parent="1" source="MN1CiRBbR8H1fu0ibKLE-33" target="MN1CiRBbR8H1fu0ibKLE-107" edge="1">
          <mxGeometry relative="1" as="geometry" />
        </mxCell>
        <mxCell id="MN1CiRBbR8H1fu0ibKLE-111" style="edgeStyle=none;shape=connector;rounded=0;orthogonalLoop=1;jettySize=auto;html=1;exitX=1;exitY=0;exitDx=0;exitDy=0;entryX=0.5;entryY=0;entryDx=0;entryDy=0;strokeColor=default;align=center;verticalAlign=middle;fontFamily=Helvetica;fontSize=11;fontColor=default;labelBackgroundColor=default;startFill=0;endArrow=none;" parent="1" source="MN1CiRBbR8H1fu0ibKLE-33" target="MN1CiRBbR8H1fu0ibKLE-106" edge="1">
          <mxGeometry relative="1" as="geometry" />
        </mxCell>
        <mxCell id="MN1CiRBbR8H1fu0ibKLE-114" style="edgeStyle=none;shape=connector;rounded=0;orthogonalLoop=1;jettySize=auto;html=1;exitX=1;exitY=0;exitDx=0;exitDy=0;entryX=1;entryY=0.5;entryDx=0;entryDy=0;strokeColor=default;align=center;verticalAlign=middle;fontFamily=Helvetica;fontSize=11;fontColor=default;labelBackgroundColor=default;startFill=0;endArrow=none;" parent="1" source="MN1CiRBbR8H1fu0ibKLE-33" target="MN1CiRBbR8H1fu0ibKLE-113" edge="1">
          <mxGeometry relative="1" as="geometry" />
        </mxCell>
        <mxCell id="MN1CiRBbR8H1fu0ibKLE-120" value="N" style="edgeStyle=none;shape=connector;rounded=0;orthogonalLoop=1;jettySize=auto;html=1;exitX=0.5;exitY=1;exitDx=0;exitDy=0;entryX=0.5;entryY=0;entryDx=0;entryDy=0;strokeColor=default;align=center;verticalAlign=middle;fontFamily=Helvetica;fontSize=11;fontColor=default;labelBackgroundColor=default;startFill=0;endArrow=none;" parent="1" source="MN1CiRBbR8H1fu0ibKLE-33" target="MN1CiRBbR8H1fu0ibKLE-118" edge="1">
          <mxGeometry relative="1" as="geometry" />
        </mxCell>
        <mxCell id="MN1CiRBbR8H1fu0ibKLE-33" value="&lt;font style=&quot;font-size: 14px;&quot; face=&quot;Amiri&quot;&gt;تیم&lt;/font&gt;" style="whiteSpace=wrap;html=1;align=center;fontFamily=Helvetica;fontSize=11;fontColor=default;labelBackgroundColor=default;" parent="1" vertex="1">
          <mxGeometry x="1188.5" y="504" width="63" height="28" as="geometry" />
        </mxCell>
        <mxCell id="MN1CiRBbR8H1fu0ibKLE-49" style="edgeStyle=none;shape=connector;rounded=0;orthogonalLoop=1;jettySize=auto;html=1;exitX=1;exitY=0.5;exitDx=0;exitDy=0;entryX=0;entryY=0.5;entryDx=0;entryDy=0;strokeColor=default;align=center;verticalAlign=middle;fontFamily=Helvetica;fontSize=11;fontColor=default;labelBackgroundColor=default;startFill=0;endArrow=none;" parent="1" source="MN1CiRBbR8H1fu0ibKLE-37" target="MN1CiRBbR8H1fu0ibKLE-46" edge="1">
          <mxGeometry relative="1" as="geometry" />
        </mxCell>
        <mxCell id="K9c3699JtVxY8OUxqaeo-32" value="1" style="edgeStyle=none;shape=connector;rounded=0;orthogonalLoop=1;jettySize=auto;html=1;exitX=0;exitY=0.5;exitDx=0;exitDy=0;entryX=1;entryY=0.5;entryDx=0;entryDy=0;strokeColor=default;align=center;verticalAlign=middle;fontFamily=Helvetica;fontSize=11;fontColor=default;labelBackgroundColor=default;startFill=0;endArrow=none;" parent="1" source="MN1CiRBbR8H1fu0ibKLE-37" target="K9c3699JtVxY8OUxqaeo-31" edge="1">
          <mxGeometry relative="1" as="geometry" />
        </mxCell>
        <mxCell id="MN1CiRBbR8H1fu0ibKLE-37" value="&lt;font data-font-src=&quot;https://fonts.googleapis.com/css?family=Amiri&quot; face=&quot;Amiri&quot; style=&quot;font-size: 14px;&quot;&gt;کادر&lt;/font&gt;" style="whiteSpace=wrap;html=1;align=center;fontFamily=Helvetica;fontSize=11;fontColor=default;labelBackgroundColor=default;" parent="1" vertex="1">
          <mxGeometry x="879" y="232" width="63" height="28" as="geometry" />
        </mxCell>
        <mxCell id="MN1CiRBbR8H1fu0ibKLE-40" value="1" style="edgeStyle=none;shape=link;rounded=0;orthogonalLoop=1;jettySize=auto;html=1;exitX=0.5;exitY=1;exitDx=0;exitDy=0;entryX=0.5;entryY=0;entryDx=0;entryDy=0;strokeColor=default;align=center;verticalAlign=middle;fontFamily=Helvetica;fontSize=11;fontColor=default;labelBackgroundColor=default;startFill=0;endArrow=none;" parent="1" source="MN1CiRBbR8H1fu0ibKLE-38" target="MN1CiRBbR8H1fu0ibKLE-37" edge="1">
          <mxGeometry relative="1" as="geometry" />
        </mxCell>
        <mxCell id="MN1CiRBbR8H1fu0ibKLE-38" value="&lt;font style=&quot;font-size: 12px;&quot; data-font-src=&quot;https://fonts.googleapis.com/css?family=Amiri&quot; face=&quot;Amiri&quot;&gt;متناظر&lt;/font&gt;" style="shape=rhombus;perimeter=rhombusPerimeter;whiteSpace=wrap;html=1;align=center;fontFamily=Helvetica;fontSize=11;fontColor=default;labelBackgroundColor=default;" parent="1" vertex="1">
          <mxGeometry x="884.5" y="160" width="52" height="34" as="geometry" />
        </mxCell>
        <mxCell id="MN1CiRBbR8H1fu0ibKLE-44" value="N" style="edgeStyle=none;shape=link;rounded=0;orthogonalLoop=1;jettySize=auto;html=1;exitX=0;exitY=0;exitDx=0;exitDy=0;entryX=0.5;entryY=1;entryDx=0;entryDy=0;strokeColor=default;align=center;verticalAlign=middle;fontFamily=Helvetica;fontSize=11;fontColor=default;labelBackgroundColor=default;startFill=0;endArrow=none;" parent="1" source="MN1CiRBbR8H1fu0ibKLE-42" target="MN1CiRBbR8H1fu0ibKLE-37" edge="1">
          <mxGeometry relative="1" as="geometry" />
        </mxCell>
        <mxCell id="MN1CiRBbR8H1fu0ibKLE-42" value="&lt;font data-font-src=&quot;https://fonts.googleapis.com/css?family=Amiri&quot; face=&quot;Amiri&quot; style=&quot;font-size: 12px;&quot;&gt;دارد&lt;/font&gt;" style="shape=rhombus;perimeter=rhombusPerimeter;whiteSpace=wrap;html=1;align=center;fontFamily=Helvetica;fontSize=11;fontColor=default;labelBackgroundColor=default;" parent="1" vertex="1">
          <mxGeometry x="1027.5" y="397" width="42" height="32" as="geometry" />
        </mxCell>
        <mxCell id="MN1CiRBbR8H1fu0ibKLE-68" style="edgeStyle=none;shape=connector;rounded=0;orthogonalLoop=1;jettySize=auto;html=1;exitX=0.5;exitY=0;exitDx=0;exitDy=0;entryX=0.5;entryY=1;entryDx=0;entryDy=0;strokeColor=default;align=center;verticalAlign=middle;fontFamily=Helvetica;fontSize=11;fontColor=default;labelBackgroundColor=default;startFill=0;endArrow=none;" parent="1" source="MN1CiRBbR8H1fu0ibKLE-50" target="MN1CiRBbR8H1fu0ibKLE-65" edge="1">
          <mxGeometry relative="1" as="geometry" />
        </mxCell>
        <mxCell id="MN1CiRBbR8H1fu0ibKLE-72" value="N" style="edgeStyle=none;shape=link;rounded=0;orthogonalLoop=1;jettySize=auto;html=1;exitX=0.5;exitY=1;exitDx=0;exitDy=0;entryX=0.5;entryY=0;entryDx=0;entryDy=0;strokeColor=default;align=center;verticalAlign=middle;fontFamily=Helvetica;fontSize=11;fontColor=default;labelBackgroundColor=default;startFill=0;endArrow=none;" parent="1" source="MN1CiRBbR8H1fu0ibKLE-50" target="MN1CiRBbR8H1fu0ibKLE-71" edge="1">
          <mxGeometry relative="1" as="geometry" />
        </mxCell>
        <mxCell id="K9c3699JtVxY8OUxqaeo-8" value="M" style="edgeStyle=none;shape=connector;rounded=0;orthogonalLoop=1;jettySize=auto;html=1;exitX=0;exitY=0.5;exitDx=0;exitDy=0;entryX=0.5;entryY=1;entryDx=0;entryDy=0;strokeColor=default;align=center;verticalAlign=middle;fontFamily=Helvetica;fontSize=11;fontColor=default;labelBackgroundColor=default;startFill=0;endArrow=none;" parent="1" source="MN1CiRBbR8H1fu0ibKLE-50" target="K9c3699JtVxY8OUxqaeo-4" edge="1">
          <mxGeometry relative="1" as="geometry" />
        </mxCell>
        <mxCell id="K9c3699JtVxY8OUxqaeo-12" value="M" style="edgeStyle=none;shape=connector;rounded=0;orthogonalLoop=1;jettySize=auto;html=1;exitX=0;exitY=0.5;exitDx=0;exitDy=0;entryX=0.5;entryY=1;entryDx=0;entryDy=0;strokeColor=default;align=center;verticalAlign=middle;fontFamily=Helvetica;fontSize=11;fontColor=default;labelBackgroundColor=default;startFill=0;endArrow=none;" parent="1" source="MN1CiRBbR8H1fu0ibKLE-50" target="K9c3699JtVxY8OUxqaeo-11" edge="1">
          <mxGeometry relative="1" as="geometry" />
        </mxCell>
        <mxCell id="K9c3699JtVxY8OUxqaeo-25" value="1" style="edgeStyle=none;shape=connector;rounded=0;orthogonalLoop=1;jettySize=auto;html=1;exitX=0;exitY=0.5;exitDx=0;exitDy=0;entryX=1;entryY=0.5;entryDx=0;entryDy=0;strokeColor=default;align=center;verticalAlign=middle;fontFamily=Helvetica;fontSize=11;fontColor=default;labelBackgroundColor=default;startFill=0;endArrow=none;" parent="1" source="MN1CiRBbR8H1fu0ibKLE-50" target="K9c3699JtVxY8OUxqaeo-22" edge="1">
          <mxGeometry relative="1" as="geometry" />
        </mxCell>
        <mxCell id="K9c3699JtVxY8OUxqaeo-47" style="edgeStyle=none;shape=connector;rounded=0;orthogonalLoop=1;jettySize=auto;html=1;entryX=0.251;entryY=0.94;entryDx=0;entryDy=0;strokeColor=default;align=center;verticalAlign=middle;fontFamily=Helvetica;fontSize=11;fontColor=default;labelBackgroundColor=default;startFill=0;endArrow=none;entryPerimeter=0;exitX=0.5;exitY=0;exitDx=0;exitDy=0;" parent="1" source="MN1CiRBbR8H1fu0ibKLE-50" target="K9c3699JtVxY8OUxqaeo-43" edge="1">
          <mxGeometry relative="1" as="geometry">
            <mxPoint x="803" y="762" as="sourcePoint" />
          </mxGeometry>
        </mxCell>
        <mxCell id="cttu95DVh9DoGcVbJHbc-3" style="edgeStyle=none;shape=link;rounded=0;orthogonalLoop=1;jettySize=auto;html=1;exitX=0.5;exitY=1;exitDx=0;exitDy=0;entryX=1;entryY=0;entryDx=0;entryDy=0;strokeColor=default;align=center;verticalAlign=middle;fontFamily=Helvetica;fontSize=11;fontColor=default;labelBackgroundColor=default;startFill=0;endArrow=none;" parent="1" source="MN1CiRBbR8H1fu0ibKLE-50" target="cttu95DVh9DoGcVbJHbc-2" edge="1">
          <mxGeometry relative="1" as="geometry" />
        </mxCell>
        <mxCell id="-JGs0fb6M8jb9qjW5vW--1" value="N" style="edgeLabel;html=1;align=center;verticalAlign=middle;resizable=0;points=[];" vertex="1" connectable="0" parent="cttu95DVh9DoGcVbJHbc-3">
          <mxGeometry x="-0.0305" y="2" relative="1" as="geometry">
            <mxPoint as="offset" />
          </mxGeometry>
        </mxCell>
        <mxCell id="cttu95DVh9DoGcVbJHbc-39" style="edgeStyle=none;shape=connector;rounded=0;orthogonalLoop=1;jettySize=auto;html=1;exitX=0.5;exitY=0;exitDx=0;exitDy=0;entryX=0;entryY=1;entryDx=0;entryDy=0;strokeColor=default;align=center;verticalAlign=middle;fontFamily=Helvetica;fontSize=11;fontColor=default;labelBackgroundColor=default;startFill=0;endArrow=none;" parent="1" source="MN1CiRBbR8H1fu0ibKLE-50" target="cttu95DVh9DoGcVbJHbc-36" edge="1">
          <mxGeometry relative="1" as="geometry" />
        </mxCell>
        <mxCell id="MN1CiRBbR8H1fu0ibKLE-50" value="&lt;font data-font-src=&quot;https://fonts.googleapis.com/css?family=Amiri&quot; face=&quot;Amiri&quot; style=&quot;font-size: 14px;&quot;&gt;بازی&lt;/font&gt;" style="whiteSpace=wrap;html=1;align=center;fontFamily=Helvetica;fontSize=11;fontColor=default;labelBackgroundColor=default;" parent="1" vertex="1">
          <mxGeometry x="748" y="772" width="63" height="27.5" as="geometry" />
        </mxCell>
        <mxCell id="MN1CiRBbR8H1fu0ibKLE-55" value="N" style="edgeStyle=none;shape=link;rounded=0;orthogonalLoop=1;jettySize=auto;html=1;exitX=0;exitY=1;exitDx=0;exitDy=0;entryX=0.5;entryY=0;entryDx=0;entryDy=0;strokeColor=default;align=center;verticalAlign=middle;fontFamily=Helvetica;fontSize=11;fontColor=default;labelBackgroundColor=default;startFill=0;endArrow=none;" parent="1" source="MN1CiRBbR8H1fu0ibKLE-52" target="MN1CiRBbR8H1fu0ibKLE-50" edge="1">
          <mxGeometry relative="1" as="geometry" />
        </mxCell>
        <mxCell id="MN1CiRBbR8H1fu0ibKLE-56" value="M" style="edgeStyle=none;shape=connector;rounded=0;orthogonalLoop=1;jettySize=auto;html=1;strokeColor=default;align=center;verticalAlign=middle;fontFamily=Helvetica;fontSize=11;fontColor=default;labelBackgroundColor=default;startFill=0;endArrow=none;exitX=1;exitY=0;exitDx=0;exitDy=0;" parent="1" source="MN1CiRBbR8H1fu0ibKLE-52" edge="1">
          <mxGeometry relative="1" as="geometry">
            <mxPoint x="998" y="630" as="sourcePoint" />
            <mxPoint x="1189" y="518" as="targetPoint" />
          </mxGeometry>
        </mxCell>
        <mxCell id="K9c3699JtVxY8OUxqaeo-17" style="edgeStyle=none;shape=connector;rounded=0;orthogonalLoop=1;jettySize=auto;html=1;exitX=0.5;exitY=0;exitDx=0;exitDy=0;entryX=0.5;entryY=1;entryDx=0;entryDy=0;strokeColor=default;align=center;verticalAlign=middle;fontFamily=Helvetica;fontSize=11;fontColor=default;labelBackgroundColor=default;startFill=0;endArrow=none;" parent="1" source="MN1CiRBbR8H1fu0ibKLE-52" target="K9c3699JtVxY8OUxqaeo-16" edge="1">
          <mxGeometry relative="1" as="geometry" />
        </mxCell>
        <mxCell id="MN1CiRBbR8H1fu0ibKLE-52" value="&lt;font face=&quot;Amiri&quot;&gt;&lt;span style=&quot;font-size: 12px;&quot;&gt;شرکت&lt;/span&gt;&lt;/font&gt;" style="shape=rhombus;perimeter=rhombusPerimeter;whiteSpace=wrap;html=1;align=center;fontFamily=Helvetica;fontSize=11;fontColor=default;labelBackgroundColor=default;" parent="1" vertex="1">
          <mxGeometry x="951.5" y="636" width="49.5" height="36" as="geometry" />
        </mxCell>
        <mxCell id="MN1CiRBbR8H1fu0ibKLE-63" style="edgeStyle=none;shape=connector;rounded=0;orthogonalLoop=1;jettySize=auto;html=1;exitX=1;exitY=1;exitDx=0;exitDy=0;entryX=0.5;entryY=0;entryDx=0;entryDy=0;strokeColor=default;align=center;verticalAlign=middle;fontFamily=Helvetica;fontSize=11;fontColor=default;labelBackgroundColor=default;startFill=0;endArrow=none;" parent="1" source="MN1CiRBbR8H1fu0ibKLE-62" target="MN1CiRBbR8H1fu0ibKLE-52" edge="1">
          <mxGeometry relative="1" as="geometry" />
        </mxCell>
        <mxCell id="hgn5-UgbgFa5v8DhDo9k-5" style="rounded=0;orthogonalLoop=1;jettySize=auto;html=1;exitX=0.5;exitY=0;exitDx=0;exitDy=0;entryX=0.5;entryY=1;entryDx=0;entryDy=0;endArrow=none;startFill=0;" parent="1" source="MN1CiRBbR8H1fu0ibKLE-62" target="hgn5-UgbgFa5v8DhDo9k-3" edge="1">
          <mxGeometry relative="1" as="geometry" />
        </mxCell>
        <mxCell id="hgn5-UgbgFa5v8DhDo9k-6" style="rounded=0;orthogonalLoop=1;jettySize=auto;html=1;exitX=0.5;exitY=0;exitDx=0;exitDy=0;entryX=0.5;entryY=1;entryDx=0;entryDy=0;endArrow=none;startFill=0;" parent="1" source="MN1CiRBbR8H1fu0ibKLE-62" target="hgn5-UgbgFa5v8DhDo9k-2" edge="1">
          <mxGeometry relative="1" as="geometry" />
        </mxCell>
        <mxCell id="hgn5-UgbgFa5v8DhDo9k-7" style="edgeStyle=none;shape=connector;rounded=0;orthogonalLoop=1;jettySize=auto;html=1;exitX=0;exitY=0;exitDx=0;exitDy=0;entryX=0.5;entryY=1;entryDx=0;entryDy=0;strokeColor=default;align=center;verticalAlign=middle;fontFamily=Helvetica;fontSize=11;fontColor=default;labelBackgroundColor=default;startFill=0;endArrow=none;" parent="1" source="MN1CiRBbR8H1fu0ibKLE-62" target="hgn5-UgbgFa5v8DhDo9k-1" edge="1">
          <mxGeometry relative="1" as="geometry" />
        </mxCell>
        <mxCell id="-JGs0fb6M8jb9qjW5vW--73" style="rounded=0;orthogonalLoop=1;jettySize=auto;html=1;exitX=0;exitY=0;exitDx=0;exitDy=0;entryX=1;entryY=1;entryDx=0;entryDy=0;endArrow=none;startFill=0;" edge="1" parent="1" source="MN1CiRBbR8H1fu0ibKLE-62" target="-JGs0fb6M8jb9qjW5vW--72">
          <mxGeometry relative="1" as="geometry" />
        </mxCell>
        <mxCell id="MN1CiRBbR8H1fu0ibKLE-62" value="&lt;font face=&quot;Amiri&quot;&gt;آمار&lt;/font&gt;" style="ellipse;whiteSpace=wrap;html=1;align=center;" parent="1" vertex="1">
          <mxGeometry x="870.5" y="594.75" width="29" height="27" as="geometry" />
        </mxCell>
        <mxCell id="MN1CiRBbR8H1fu0ibKLE-65" value="&lt;font face=&quot;Amiri&quot;&gt;تاریخ&lt;/font&gt;" style="ellipse;whiteSpace=wrap;html=1;align=center;" parent="1" vertex="1">
          <mxGeometry x="726" y="687" width="25" height="27" as="geometry" />
        </mxCell>
        <mxCell id="MN1CiRBbR8H1fu0ibKLE-136" style="edgeStyle=none;shape=connector;rounded=0;orthogonalLoop=1;jettySize=auto;html=1;exitX=1;exitY=0.5;exitDx=0;exitDy=0;entryX=0;entryY=1;entryDx=0;entryDy=0;strokeColor=default;align=center;verticalAlign=middle;fontFamily=Helvetica;fontSize=11;fontColor=default;labelBackgroundColor=default;startFill=0;endArrow=none;" parent="1" source="MN1CiRBbR8H1fu0ibKLE-70" target="MN1CiRBbR8H1fu0ibKLE-131" edge="1">
          <mxGeometry relative="1" as="geometry" />
        </mxCell>
        <mxCell id="MN1CiRBbR8H1fu0ibKLE-137" style="edgeStyle=none;shape=connector;rounded=0;orthogonalLoop=1;jettySize=auto;html=1;entryX=0;entryY=0.5;entryDx=0;entryDy=0;strokeColor=default;align=center;verticalAlign=middle;fontFamily=Helvetica;fontSize=11;fontColor=default;labelBackgroundColor=default;startFill=0;endArrow=none;exitX=1;exitY=0.5;exitDx=0;exitDy=0;" parent="1" source="MN1CiRBbR8H1fu0ibKLE-70" target="MN1CiRBbR8H1fu0ibKLE-130" edge="1">
          <mxGeometry relative="1" as="geometry">
            <mxPoint x="947" y="939" as="sourcePoint" />
          </mxGeometry>
        </mxCell>
        <mxCell id="MN1CiRBbR8H1fu0ibKLE-138" style="edgeStyle=none;shape=connector;rounded=0;orthogonalLoop=1;jettySize=auto;html=1;exitX=1;exitY=0.5;exitDx=0;exitDy=0;entryX=0;entryY=0;entryDx=0;entryDy=0;strokeColor=default;align=center;verticalAlign=middle;fontFamily=Helvetica;fontSize=11;fontColor=default;labelBackgroundColor=default;startFill=0;endArrow=none;" parent="1" source="MN1CiRBbR8H1fu0ibKLE-70" target="MN1CiRBbR8H1fu0ibKLE-129" edge="1">
          <mxGeometry relative="1" as="geometry" />
        </mxCell>
        <mxCell id="MN1CiRBbR8H1fu0ibKLE-139" style="edgeStyle=none;shape=connector;rounded=0;orthogonalLoop=1;jettySize=auto;html=1;exitX=1;exitY=0.5;exitDx=0;exitDy=0;entryX=0;entryY=0.5;entryDx=0;entryDy=0;strokeColor=default;align=center;verticalAlign=middle;fontFamily=Helvetica;fontSize=11;fontColor=default;labelBackgroundColor=default;startFill=0;endArrow=none;" parent="1" source="MN1CiRBbR8H1fu0ibKLE-70" target="MN1CiRBbR8H1fu0ibKLE-125" edge="1">
          <mxGeometry relative="1" as="geometry" />
        </mxCell>
        <mxCell id="K9c3699JtVxY8OUxqaeo-48" style="edgeStyle=none;shape=connector;rounded=0;orthogonalLoop=1;jettySize=auto;html=1;exitX=1;exitY=0.5;exitDx=0;exitDy=0;entryX=0.5;entryY=0;entryDx=0;entryDy=0;strokeColor=default;align=center;verticalAlign=middle;fontFamily=Helvetica;fontSize=11;fontColor=default;labelBackgroundColor=default;startFill=0;endArrow=none;" parent="1" source="MN1CiRBbR8H1fu0ibKLE-70" target="MN1CiRBbR8H1fu0ibKLE-133" edge="1">
          <mxGeometry relative="1" as="geometry" />
        </mxCell>
        <mxCell id="hgn5-UgbgFa5v8DhDo9k-11" style="edgeStyle=none;shape=connector;rounded=0;orthogonalLoop=1;jettySize=auto;html=1;entryX=0.5;entryY=0;entryDx=0;entryDy=0;strokeColor=default;align=center;verticalAlign=middle;fontFamily=Helvetica;fontSize=11;fontColor=default;labelBackgroundColor=default;startFill=0;endArrow=none;exitX=1;exitY=0.5;exitDx=0;exitDy=0;" parent="1" source="MN1CiRBbR8H1fu0ibKLE-70" target="MN1CiRBbR8H1fu0ibKLE-127" edge="1">
          <mxGeometry relative="1" as="geometry">
            <mxPoint x="909" y="953" as="sourcePoint" />
          </mxGeometry>
        </mxCell>
        <mxCell id="MN1CiRBbR8H1fu0ibKLE-70" value="&lt;font data-font-src=&quot;https://fonts.googleapis.com/css?family=Amiri&quot; face=&quot;Amiri&quot; style=&quot;font-size: 14px;&quot;&gt;ورزشگاه&lt;/font&gt;" style="whiteSpace=wrap;html=1;align=center;fontFamily=Helvetica;fontSize=11;fontColor=default;labelBackgroundColor=default;" parent="1" vertex="1">
          <mxGeometry x="748" y="956" width="63" height="28" as="geometry" />
        </mxCell>
        <mxCell id="MN1CiRBbR8H1fu0ibKLE-73" value="1" style="edgeStyle=none;shape=connector;rounded=0;orthogonalLoop=1;jettySize=auto;html=1;exitX=0.5;exitY=1;exitDx=0;exitDy=0;entryX=0.5;entryY=0;entryDx=0;entryDy=0;strokeColor=default;align=center;verticalAlign=middle;fontFamily=Helvetica;fontSize=11;fontColor=default;labelBackgroundColor=default;startFill=0;endArrow=none;" parent="1" source="MN1CiRBbR8H1fu0ibKLE-71" target="MN1CiRBbR8H1fu0ibKLE-70" edge="1">
          <mxGeometry relative="1" as="geometry">
            <mxPoint as="offset" />
          </mxGeometry>
        </mxCell>
        <mxCell id="MN1CiRBbR8H1fu0ibKLE-71" value="&lt;font data-font-src=&quot;https://fonts.googleapis.com/css?family=Amiri&quot; face=&quot;Amiri&quot; style=&quot;font-size: 12px;&quot;&gt;برگزار&lt;/font&gt;" style="shape=rhombus;perimeter=rhombusPerimeter;whiteSpace=wrap;html=1;align=center;fontFamily=Helvetica;fontSize=11;fontColor=default;labelBackgroundColor=default;" parent="1" vertex="1">
          <mxGeometry x="750" y="869" width="59" height="38" as="geometry" />
        </mxCell>
        <mxCell id="MN1CiRBbR8H1fu0ibKLE-80" style="edgeStyle=none;shape=connector;rounded=0;orthogonalLoop=1;jettySize=auto;html=1;exitX=1;exitY=0.5;exitDx=0;exitDy=0;entryX=0;entryY=1;entryDx=0;entryDy=0;strokeColor=default;align=center;verticalAlign=middle;fontFamily=Helvetica;fontSize=11;fontColor=default;labelBackgroundColor=default;startFill=0;endArrow=none;" parent="1" source="MN1CiRBbR8H1fu0ibKLE-74" target="MN1CiRBbR8H1fu0ibKLE-79" edge="1">
          <mxGeometry relative="1" as="geometry" />
        </mxCell>
        <mxCell id="MN1CiRBbR8H1fu0ibKLE-89" value="1" style="edgeStyle=none;shape=connector;rounded=0;orthogonalLoop=1;jettySize=auto;html=1;exitX=0.5;exitY=1;exitDx=0;exitDy=0;entryX=0.5;entryY=0;entryDx=0;entryDy=0;strokeColor=default;align=center;verticalAlign=middle;fontFamily=Helvetica;fontSize=11;fontColor=default;labelBackgroundColor=default;startFill=0;endArrow=none;" parent="1" source="MN1CiRBbR8H1fu0ibKLE-74" target="MN1CiRBbR8H1fu0ibKLE-86" edge="1">
          <mxGeometry x="0.0163" relative="1" as="geometry">
            <mxPoint as="offset" />
          </mxGeometry>
        </mxCell>
        <mxCell id="MN1CiRBbR8H1fu0ibKLE-74" value="&lt;font style=&quot;font-size: 14px;&quot; face=&quot;Amiri&quot;&gt;لیگ&lt;/font&gt;" style="whiteSpace=wrap;html=1;align=center;fontFamily=Helvetica;fontSize=11;fontColor=default;labelBackgroundColor=default;" parent="1" vertex="1">
          <mxGeometry x="1344.5" y="505" width="63" height="28" as="geometry" />
        </mxCell>
        <mxCell id="MN1CiRBbR8H1fu0ibKLE-78" value="1" style="edgeStyle=none;shape=connector;rounded=0;orthogonalLoop=1;jettySize=auto;html=1;exitX=1;exitY=0.5;exitDx=0;exitDy=0;entryX=0;entryY=0.5;entryDx=0;entryDy=0;strokeColor=default;align=center;verticalAlign=middle;fontFamily=Helvetica;fontSize=11;fontColor=default;labelBackgroundColor=default;startFill=0;endArrow=none;" parent="1" source="MN1CiRBbR8H1fu0ibKLE-76" target="MN1CiRBbR8H1fu0ibKLE-74" edge="1">
          <mxGeometry relative="1" as="geometry" />
        </mxCell>
        <mxCell id="MN1CiRBbR8H1fu0ibKLE-76" value="&lt;font data-font-src=&quot;https://fonts.googleapis.com/css?family=Amiri&quot; face=&quot;Amiri&quot; style=&quot;font-size: 12px;&quot;&gt;دارد&lt;/font&gt;" style="shape=rhombus;perimeter=rhombusPerimeter;whiteSpace=wrap;html=1;align=center;fontFamily=Helvetica;fontSize=11;fontColor=default;labelBackgroundColor=default;" parent="1" vertex="1">
          <mxGeometry x="1280" y="503" width="42" height="32" as="geometry" />
        </mxCell>
        <mxCell id="MN1CiRBbR8H1fu0ibKLE-92" style="edgeStyle=none;shape=connector;rounded=0;orthogonalLoop=1;jettySize=auto;html=1;exitX=1;exitY=0.5;exitDx=0;exitDy=0;entryX=0;entryY=0.5;entryDx=0;entryDy=0;strokeColor=default;align=center;verticalAlign=middle;fontFamily=Helvetica;fontSize=11;fontColor=default;labelBackgroundColor=default;startFill=0;endArrow=none;" parent="1" source="MN1CiRBbR8H1fu0ibKLE-85" target="MN1CiRBbR8H1fu0ibKLE-90" edge="1">
          <mxGeometry relative="1" as="geometry" />
        </mxCell>
        <mxCell id="MN1CiRBbR8H1fu0ibKLE-119" value="M" style="edgeStyle=none;shape=connector;rounded=0;orthogonalLoop=1;jettySize=auto;html=1;exitX=0;exitY=0;exitDx=0;exitDy=0;strokeColor=default;align=center;verticalAlign=middle;fontFamily=Helvetica;fontSize=11;fontColor=default;labelBackgroundColor=default;startFill=0;endArrow=none;entryX=0.5;entryY=1;entryDx=0;entryDy=0;" parent="1" source="MN1CiRBbR8H1fu0ibKLE-85" target="MN1CiRBbR8H1fu0ibKLE-118" edge="1">
          <mxGeometry relative="1" as="geometry">
            <mxPoint x="1236" y="723" as="targetPoint" />
          </mxGeometry>
        </mxCell>
        <mxCell id="MN1CiRBbR8H1fu0ibKLE-85" value="&lt;font style=&quot;font-size: 14px;&quot;&gt;فصل&lt;/font&gt;" style="shape=ext;margin=3;double=1;whiteSpace=wrap;html=1;align=center;fontFamily=Helvetica;fontSize=11;fontColor=default;labelBackgroundColor=default;" parent="1" vertex="1">
          <mxGeometry x="1340" y="764" width="72" height="43" as="geometry" />
        </mxCell>
        <mxCell id="MN1CiRBbR8H1fu0ibKLE-88" value="N" style="edgeStyle=none;shape=link;rounded=0;orthogonalLoop=1;jettySize=auto;html=1;exitX=0.5;exitY=1;exitDx=0;exitDy=0;entryX=0.5;entryY=0;entryDx=0;entryDy=0;strokeColor=default;align=center;verticalAlign=middle;fontFamily=Helvetica;fontSize=11;fontColor=default;labelBackgroundColor=default;startFill=0;endArrow=none;" parent="1" source="MN1CiRBbR8H1fu0ibKLE-86" target="MN1CiRBbR8H1fu0ibKLE-85" edge="1">
          <mxGeometry relative="1" as="geometry" />
        </mxCell>
        <mxCell id="MN1CiRBbR8H1fu0ibKLE-86" value="&lt;font data-font-src=&quot;https://fonts.googleapis.com/css?family=Amiri&quot; face=&quot;Amiri&quot; style=&quot;font-size: 12px;&quot;&gt;متعلق به&lt;/font&gt;" style="shape=rhombus;double=1;perimeter=rhombusPerimeter;whiteSpace=wrap;html=1;align=center;fontFamily=Helvetica;fontSize=11;fontColor=default;labelBackgroundColor=default;" parent="1" vertex="1">
          <mxGeometry x="1337" y="624" width="78" height="48" as="geometry" />
        </mxCell>
        <mxCell id="MN1CiRBbR8H1fu0ibKLE-87" style="edgeStyle=none;shape=connector;rounded=0;orthogonalLoop=1;jettySize=auto;html=1;exitX=0.5;exitY=1;exitDx=0;exitDy=0;strokeColor=default;align=center;verticalAlign=middle;fontFamily=Helvetica;fontSize=11;fontColor=default;labelBackgroundColor=default;startFill=0;endArrow=none;" parent="1" source="MN1CiRBbR8H1fu0ibKLE-85" target="MN1CiRBbR8H1fu0ibKLE-85" edge="1">
          <mxGeometry relative="1" as="geometry" />
        </mxCell>
        <mxCell id="MN1CiRBbR8H1fu0ibKLE-101" value="1" style="edgeStyle=none;shape=connector;rounded=0;orthogonalLoop=1;jettySize=auto;html=1;exitX=0;exitY=0.5;exitDx=0;exitDy=0;entryX=1;entryY=0.5;entryDx=0;entryDy=0;strokeColor=default;align=center;verticalAlign=middle;fontFamily=Helvetica;fontSize=11;fontColor=default;labelBackgroundColor=default;startFill=0;endArrow=none;" parent="1" source="MN1CiRBbR8H1fu0ibKLE-94" target="-JGs0fb6M8jb9qjW5vW--43" edge="1">
          <mxGeometry relative="1" as="geometry">
            <mxPoint x="960.045105163372" y="823.2021929300688" as="targetPoint" />
          </mxGeometry>
        </mxCell>
        <mxCell id="K9c3699JtVxY8OUxqaeo-3" style="rounded=0;orthogonalLoop=1;jettySize=auto;html=1;exitX=0.5;exitY=1;exitDx=0;exitDy=0;entryX=0.5;entryY=0;entryDx=0;entryDy=0;endArrow=none;startFill=0;" parent="1" source="MN1CiRBbR8H1fu0ibKLE-94" target="K9c3699JtVxY8OUxqaeo-1" edge="1">
          <mxGeometry relative="1" as="geometry" />
        </mxCell>
        <mxCell id="MN1CiRBbR8H1fu0ibKLE-94" value="&lt;font style=&quot;font-size: 14px;&quot; data-font-src=&quot;https://fonts.googleapis.com/css?family=Amiri&quot; face=&quot;Amiri&quot;&gt;هفته&lt;/font&gt;" style="shape=ext;margin=3;double=1;whiteSpace=wrap;html=1;align=center;fontFamily=Helvetica;fontSize=11;fontColor=default;labelBackgroundColor=default;" parent="1" vertex="1">
          <mxGeometry x="1069.5" y="765" width="72" height="43" as="geometry" />
        </mxCell>
        <mxCell id="MN1CiRBbR8H1fu0ibKLE-97" value="1" style="edgeStyle=none;shape=connector;rounded=0;orthogonalLoop=1;jettySize=auto;html=1;exitX=1;exitY=0.5;exitDx=0;exitDy=0;entryX=0;entryY=0.5;entryDx=0;entryDy=0;strokeColor=default;align=center;verticalAlign=middle;fontFamily=Helvetica;fontSize=11;fontColor=default;labelBackgroundColor=default;startFill=0;endArrow=none;" parent="1" source="MN1CiRBbR8H1fu0ibKLE-95" target="MN1CiRBbR8H1fu0ibKLE-85" edge="1">
          <mxGeometry relative="1" as="geometry" />
        </mxCell>
        <mxCell id="MN1CiRBbR8H1fu0ibKLE-98" value="N" style="edgeStyle=none;shape=link;rounded=0;orthogonalLoop=1;jettySize=auto;html=1;exitX=0;exitY=0.5;exitDx=0;exitDy=0;entryX=1;entryY=0.5;entryDx=0;entryDy=0;strokeColor=default;align=center;verticalAlign=middle;fontFamily=Helvetica;fontSize=11;fontColor=default;labelBackgroundColor=default;startFill=0;endArrow=none;" parent="1" source="MN1CiRBbR8H1fu0ibKLE-95" target="MN1CiRBbR8H1fu0ibKLE-94" edge="1">
          <mxGeometry relative="1" as="geometry" />
        </mxCell>
        <mxCell id="MN1CiRBbR8H1fu0ibKLE-95" value="&lt;font data-font-src=&quot;https://fonts.googleapis.com/css?family=Amiri&quot; face=&quot;Amiri&quot; style=&quot;font-size: 12px;&quot;&gt;متعلق به&lt;/font&gt;" style="shape=rhombus;double=1;perimeter=rhombusPerimeter;whiteSpace=wrap;html=1;align=center;fontFamily=Helvetica;fontSize=11;fontColor=default;labelBackgroundColor=default;" parent="1" vertex="1">
          <mxGeometry x="1188.5" y="765.5" width="65" height="42" as="geometry" />
        </mxCell>
        <mxCell id="MN1CiRBbR8H1fu0ibKLE-102" value="N" style="edgeStyle=none;shape=link;rounded=0;orthogonalLoop=1;jettySize=auto;html=1;exitX=0;exitY=0.5;exitDx=0;exitDy=0;entryX=1;entryY=0.5;entryDx=0;entryDy=0;strokeColor=default;align=center;verticalAlign=middle;fontFamily=Helvetica;fontSize=11;fontColor=default;labelBackgroundColor=default;startFill=0;endArrow=none;" parent="1" source="-JGs0fb6M8jb9qjW5vW--43" target="MN1CiRBbR8H1fu0ibKLE-50" edge="1">
          <mxGeometry relative="1" as="geometry">
            <mxPoint x="935.9548948366282" y="788.7978070699312" as="sourcePoint" />
          </mxGeometry>
        </mxCell>
        <mxCell id="MN1CiRBbR8H1fu0ibKLE-106" value="&lt;font face=&quot;Amiri&quot;&gt;شهر&lt;/font&gt;" style="ellipse;whiteSpace=wrap;html=1;align=center;" parent="1" vertex="1">
          <mxGeometry x="1278" y="424" width="29" height="33" as="geometry" />
        </mxCell>
        <mxCell id="MN1CiRBbR8H1fu0ibKLE-107" value="&lt;font face=&quot;Amiri&quot;&gt;نام&lt;/font&gt;" style="ellipse;whiteSpace=wrap;html=1;align=center;" parent="1" vertex="1">
          <mxGeometry x="1277" y="457" width="30" height="29" as="geometry" />
        </mxCell>
        <mxCell id="MN1CiRBbR8H1fu0ibKLE-113" value="&lt;font face=&quot;Amiri&quot;&gt;تاریخ تاسسیس&lt;/font&gt;" style="ellipse;whiteSpace=wrap;html=1;align=center;" parent="1" vertex="1">
          <mxGeometry x="1311" y="446" width="49" height="41" as="geometry" />
        </mxCell>
        <mxCell id="MN1CiRBbR8H1fu0ibKLE-116" style="edgeStyle=none;shape=connector;rounded=0;orthogonalLoop=1;jettySize=auto;html=1;exitX=1;exitY=0;exitDx=0;exitDy=0;entryX=0.716;entryY=0.966;entryDx=0;entryDy=0;entryPerimeter=0;strokeColor=default;align=center;verticalAlign=middle;fontFamily=Helvetica;fontSize=11;fontColor=default;labelBackgroundColor=default;startFill=0;endArrow=none;" parent="1" source="MN1CiRBbR8H1fu0ibKLE-33" target="MN1CiRBbR8H1fu0ibKLE-115" edge="1">
          <mxGeometry relative="1" as="geometry" />
        </mxCell>
        <mxCell id="MN1CiRBbR8H1fu0ibKLE-124" style="edgeStyle=none;shape=connector;rounded=0;orthogonalLoop=1;jettySize=auto;html=1;exitX=1;exitY=0.5;exitDx=0;exitDy=0;entryX=0.5;entryY=0;entryDx=0;entryDy=0;strokeColor=default;align=center;verticalAlign=middle;fontFamily=Helvetica;fontSize=11;fontColor=default;labelBackgroundColor=default;startFill=0;endArrow=none;" parent="1" source="MN1CiRBbR8H1fu0ibKLE-118" target="MN1CiRBbR8H1fu0ibKLE-123" edge="1">
          <mxGeometry relative="1" as="geometry" />
        </mxCell>
        <mxCell id="MN1CiRBbR8H1fu0ibKLE-118" value="حضور" style="shape=rhombus;perimeter=rhombusPerimeter;whiteSpace=wrap;html=1;align=center;fontFamily=Helvetica;fontSize=11;fontColor=default;labelBackgroundColor=default;" parent="1" vertex="1">
          <mxGeometry x="1238" y="621.75" width="61" height="31" as="geometry" />
        </mxCell>
        <mxCell id="MN1CiRBbR8H1fu0ibKLE-121" value="&lt;font data-font-src=&quot;https://fonts.googleapis.com/css?family=Amiri&quot; face=&quot;Amiri&quot; style=&quot;font-size: 12px;&quot;&gt;امتیاز&lt;/font&gt;" style="ellipse;whiteSpace=wrap;html=1;align=center;dashed=1;fontFamily=Helvetica;fontSize=11;fontColor=default;labelBackgroundColor=default;direction=south;" parent="1" vertex="1">
          <mxGeometry x="1266.75" y="576.91" width="23.5" height="39" as="geometry" />
        </mxCell>
        <mxCell id="MN1CiRBbR8H1fu0ibKLE-122" style="edgeStyle=none;shape=connector;rounded=0;orthogonalLoop=1;jettySize=auto;html=1;exitX=1;exitY=0.5;exitDx=0;exitDy=0;strokeColor=default;align=center;verticalAlign=middle;fontFamily=Helvetica;fontSize=11;fontColor=default;labelBackgroundColor=default;startFill=0;endArrow=none;" parent="1" source="MN1CiRBbR8H1fu0ibKLE-118" edge="1">
          <mxGeometry relative="1" as="geometry">
            <mxPoint x="1282" y="615" as="targetPoint" />
          </mxGeometry>
        </mxCell>
        <mxCell id="MN1CiRBbR8H1fu0ibKLE-123" value="&lt;font data-font-src=&quot;https://fonts.googleapis.com/css?family=Amiri&quot; face=&quot;Amiri&quot; style=&quot;font-size: 12px;&quot;&gt;رتبه&lt;/font&gt;" style="ellipse;whiteSpace=wrap;html=1;align=center;dashed=1;fontFamily=Helvetica;fontSize=11;fontColor=default;labelBackgroundColor=default;" parent="1" vertex="1">
          <mxGeometry x="1297" y="652.75" width="34" height="21.5" as="geometry" />
        </mxCell>
        <mxCell id="MN1CiRBbR8H1fu0ibKLE-125" value="&lt;font face=&quot;Amiri&quot;&gt;قیمت بلیط&lt;/font&gt;" style="ellipse;whiteSpace=wrap;html=1;align=center;" parent="1" vertex="1">
          <mxGeometry x="859.5" y="1028.5" width="43.5" height="33" as="geometry" />
        </mxCell>
        <mxCell id="MN1CiRBbR8H1fu0ibKLE-142" style="edgeStyle=none;shape=connector;rounded=0;orthogonalLoop=1;jettySize=auto;html=1;exitX=0.5;exitY=0;exitDx=0;exitDy=0;strokeColor=default;align=center;verticalAlign=middle;fontFamily=Helvetica;fontSize=11;fontColor=default;labelBackgroundColor=default;startFill=0;endArrow=none;entryX=1;entryY=0.5;entryDx=0;entryDy=0;" parent="1" source="MN1CiRBbR8H1fu0ibKLE-128" target="MN1CiRBbR8H1fu0ibKLE-70" edge="1">
          <mxGeometry relative="1" as="geometry">
            <mxPoint x="909" y="953" as="targetPoint" />
          </mxGeometry>
        </mxCell>
        <mxCell id="MN1CiRBbR8H1fu0ibKLE-128" value="&lt;font face=&quot;Amiri&quot;&gt;امکانات&lt;/font&gt;" style="ellipse;whiteSpace=wrap;html=1;align=center;" parent="1" vertex="1">
          <mxGeometry x="861.5" y="952.5" width="39.5" height="29" as="geometry" />
        </mxCell>
        <mxCell id="MN1CiRBbR8H1fu0ibKLE-129" value="&lt;font face=&quot;Amiri&quot;&gt;ظرفیت&lt;/font&gt;" style="ellipse;whiteSpace=wrap;html=1;align=center;" parent="1" vertex="1">
          <mxGeometry x="861.5" y="921" width="42.5" height="24.5" as="geometry" />
        </mxCell>
        <mxCell id="MN1CiRBbR8H1fu0ibKLE-130" value="&lt;font face=&quot;Amiri&quot;&gt;نشانی&lt;/font&gt;" style="ellipse;whiteSpace=wrap;html=1;align=center;" parent="1" vertex="1">
          <mxGeometry x="864.5" y="843.5" width="35" height="34" as="geometry" />
        </mxCell>
        <mxCell id="MN1CiRBbR8H1fu0ibKLE-131" value="&lt;font face=&quot;Amiri&quot;&gt;شهر&lt;/font&gt;" style="ellipse;whiteSpace=wrap;html=1;align=center;" parent="1" vertex="1">
          <mxGeometry x="859" y="804.5" width="40.5" height="35" as="geometry" />
        </mxCell>
        <mxCell id="K9c3699JtVxY8OUxqaeo-4" value="&lt;font face=&quot;Amiri&quot;&gt;حضور&lt;/font&gt;" style="shape=rhombus;perimeter=rhombusPerimeter;whiteSpace=wrap;html=1;align=center;fontFamily=Helvetica;fontSize=11;fontColor=default;labelBackgroundColor=default;" parent="1" vertex="1">
          <mxGeometry x="650" y="498" width="49" height="32" as="geometry" />
        </mxCell>
        <mxCell id="hgn5-UgbgFa5v8DhDo9k-17" style="edgeStyle=none;shape=connector;rounded=0;orthogonalLoop=1;jettySize=auto;html=1;exitX=0;exitY=0;exitDx=0;exitDy=0;entryX=1;entryY=0.5;entryDx=0;entryDy=0;strokeColor=default;align=center;verticalAlign=middle;fontFamily=Helvetica;fontSize=11;fontColor=default;labelBackgroundColor=default;startFill=0;endArrow=none;" parent="1" source="K9c3699JtVxY8OUxqaeo-9" target="K9c3699JtVxY8OUxqaeo-4" edge="1">
          <mxGeometry relative="1" as="geometry" />
        </mxCell>
        <mxCell id="K9c3699JtVxY8OUxqaeo-13" value="N" style="edgeStyle=none;shape=connector;rounded=0;orthogonalLoop=1;jettySize=auto;html=1;exitX=0.5;exitY=0;exitDx=0;exitDy=0;entryX=0.5;entryY=1;entryDx=0;entryDy=0;strokeColor=default;align=center;verticalAlign=middle;fontFamily=Helvetica;fontSize=11;fontColor=default;labelBackgroundColor=default;startFill=0;endArrow=none;" parent="1" source="K9c3699JtVxY8OUxqaeo-11" target="MN1CiRBbR8H1fu0ibKLE-37" edge="1">
          <mxGeometry relative="1" as="geometry">
            <Array as="points" />
          </mxGeometry>
        </mxCell>
        <mxCell id="K9c3699JtVxY8OUxqaeo-41" style="edgeStyle=none;shape=connector;rounded=0;orthogonalLoop=1;jettySize=auto;html=1;strokeColor=default;align=center;verticalAlign=middle;fontFamily=Helvetica;fontSize=11;fontColor=default;labelBackgroundColor=default;startFill=0;endArrow=none;exitX=0;exitY=0.5;exitDx=0;exitDy=0;entryX=0.5;entryY=1;entryDx=0;entryDy=0;" parent="1" source="K9c3699JtVxY8OUxqaeo-11" target="K9c3699JtVxY8OUxqaeo-14" edge="1">
          <mxGeometry relative="1" as="geometry">
            <mxPoint x="586" y="494" as="sourcePoint" />
            <mxPoint x="523" y="458" as="targetPoint" />
          </mxGeometry>
        </mxCell>
        <mxCell id="K9c3699JtVxY8OUxqaeo-11" value="&lt;font face=&quot;Amiri&quot;&gt;حضور&lt;/font&gt;" style="shape=rhombus;perimeter=rhombusPerimeter;whiteSpace=wrap;html=1;align=center;fontFamily=Helvetica;fontSize=11;fontColor=default;labelBackgroundColor=default;" parent="1" vertex="1">
          <mxGeometry x="538" y="486" width="49" height="32" as="geometry" />
        </mxCell>
        <mxCell id="K9c3699JtVxY8OUxqaeo-14" value="&lt;font face=&quot;Amiri&quot;&gt;سمت&lt;/font&gt;" style="ellipse;whiteSpace=wrap;html=1;align=center;" parent="1" vertex="1">
          <mxGeometry x="517" y="436.5" width="39" height="35" as="geometry" />
        </mxCell>
        <mxCell id="K9c3699JtVxY8OUxqaeo-16" value="&lt;font face=&quot;Amiri&quot;&gt;امتیاز&lt;/font&gt;" style="ellipse;whiteSpace=wrap;html=1;align=center;" parent="1" vertex="1">
          <mxGeometry x="919.5" y="547" width="29" height="27" as="geometry" />
        </mxCell>
        <mxCell id="K9c3699JtVxY8OUxqaeo-24" value="N" style="edgeStyle=none;shape=link;rounded=0;orthogonalLoop=1;jettySize=auto;html=1;exitX=0.5;exitY=1;exitDx=0;exitDy=0;strokeColor=default;align=center;verticalAlign=middle;fontFamily=Helvetica;fontSize=11;fontColor=default;labelBackgroundColor=default;startFill=0;endArrow=none;entryX=0.5;entryY=0;entryDx=0;entryDy=0;" parent="1" source="K9c3699JtVxY8OUxqaeo-21" target="K9c3699JtVxY8OUxqaeo-22" edge="1">
          <mxGeometry relative="1" as="geometry">
            <mxPoint x="499" y="784" as="targetPoint" />
          </mxGeometry>
        </mxCell>
        <mxCell id="K9c3699JtVxY8OUxqaeo-54" style="edgeStyle=none;shape=connector;rounded=0;orthogonalLoop=1;jettySize=auto;html=1;exitX=0.5;exitY=0;exitDx=0;exitDy=0;entryX=1;entryY=1;entryDx=0;entryDy=0;strokeColor=default;align=center;verticalAlign=middle;fontFamily=Helvetica;fontSize=11;fontColor=default;labelBackgroundColor=default;startFill=0;endArrow=none;" parent="1" source="K9c3699JtVxY8OUxqaeo-21" target="K9c3699JtVxY8OUxqaeo-29" edge="1">
          <mxGeometry relative="1" as="geometry" />
        </mxCell>
        <mxCell id="K9c3699JtVxY8OUxqaeo-21" value="&lt;font style=&quot;font-size: 14px;&quot; data-font-src=&quot;https://fonts.googleapis.com/css?family=Amiri&quot; face=&quot;Amiri&quot;&gt;رخداد&lt;/font&gt;" style="shape=ext;margin=3;double=1;whiteSpace=wrap;html=1;align=center;fontFamily=Helvetica;fontSize=11;fontColor=default;labelBackgroundColor=default;" parent="1" vertex="1">
          <mxGeometry x="450" y="232" width="77" height="33" as="geometry" />
        </mxCell>
        <mxCell id="K9c3699JtVxY8OUxqaeo-22" value="&lt;font style=&quot;font-size: 12px;&quot; data-font-src=&quot;https://fonts.googleapis.com/css?family=Amiri&quot; face=&quot;Amiri&quot;&gt;متعلق به&lt;/font&gt;" style="shape=rhombus;double=1;perimeter=rhombusPerimeter;whiteSpace=wrap;html=1;align=center;fontFamily=Helvetica;fontSize=11;fontColor=default;labelBackgroundColor=default;" parent="1" vertex="1">
          <mxGeometry x="449.24" y="766.5" width="79" height="39.5" as="geometry" />
        </mxCell>
        <mxCell id="K9c3699JtVxY8OUxqaeo-29" value="&lt;font data-font-src=&quot;https://fonts.googleapis.com/css?family=Amiri&quot; face=&quot;Amiri&quot;&gt;نوع&lt;/font&gt;" style="ellipse;whiteSpace=wrap;html=1;align=center;" parent="1" vertex="1">
          <mxGeometry x="413" y="153" width="37" height="38" as="geometry" />
        </mxCell>
        <mxCell id="K9c3699JtVxY8OUxqaeo-33" value="M" style="edgeStyle=none;shape=connector;rounded=0;orthogonalLoop=1;jettySize=auto;html=1;exitX=0;exitY=0.5;exitDx=0;exitDy=0;entryX=1;entryY=0.5;entryDx=0;entryDy=0;strokeColor=default;align=center;verticalAlign=middle;fontFamily=Helvetica;fontSize=11;fontColor=default;labelBackgroundColor=default;startFill=0;endArrow=none;" parent="1" source="K9c3699JtVxY8OUxqaeo-31" target="K9c3699JtVxY8OUxqaeo-21" edge="1">
          <mxGeometry relative="1" as="geometry" />
        </mxCell>
        <mxCell id="K9c3699JtVxY8OUxqaeo-31" value="حضور" style="shape=rhombus;perimeter=rhombusPerimeter;whiteSpace=wrap;html=1;align=center;fontFamily=Helvetica;fontSize=11;fontColor=default;labelBackgroundColor=default;" parent="1" vertex="1">
          <mxGeometry x="677" y="232" width="49" height="32" as="geometry" />
        </mxCell>
        <mxCell id="K9c3699JtVxY8OUxqaeo-40" value="N" style="edgeStyle=none;shape=connector;rounded=0;orthogonalLoop=1;jettySize=auto;html=1;exitX=0;exitY=0.5;exitDx=0;exitDy=0;entryX=1;entryY=0.5;entryDx=0;entryDy=0;strokeColor=default;align=center;verticalAlign=middle;fontFamily=Helvetica;fontSize=11;fontColor=default;labelBackgroundColor=default;startFill=0;endArrow=none;" parent="1" source="K9c3699JtVxY8OUxqaeo-36" target="K9c3699JtVxY8OUxqaeo-21" edge="1">
          <mxGeometry relative="1" as="geometry" />
        </mxCell>
        <mxCell id="K9c3699JtVxY8OUxqaeo-36" value="حضور" style="shape=rhombus;perimeter=rhombusPerimeter;whiteSpace=wrap;html=1;align=center;fontFamily=Helvetica;fontSize=11;fontColor=default;labelBackgroundColor=default;" parent="1" vertex="1">
          <mxGeometry x="677" y="192" width="44" height="32" as="geometry" />
        </mxCell>
        <mxCell id="K9c3699JtVxY8OUxqaeo-61" style="edgeStyle=none;shape=connector;rounded=0;orthogonalLoop=1;jettySize=auto;html=1;exitX=0.5;exitY=1;exitDx=0;exitDy=0;strokeColor=default;align=center;verticalAlign=middle;fontFamily=Helvetica;fontSize=11;fontColor=default;labelBackgroundColor=default;startFill=0;endArrow=none;" parent="1" source="K9c3699JtVxY8OUxqaeo-46" target="K9c3699JtVxY8OUxqaeo-59" edge="1">
          <mxGeometry relative="1" as="geometry" />
        </mxCell>
        <mxCell id="K9c3699JtVxY8OUxqaeo-46" value="&lt;font data-font-src=&quot;https://fonts.googleapis.com/css?family=Amiri&quot; face=&quot;Amiri&quot; style=&quot;font-size: 14px;&quot;&gt;داور&lt;/font&gt;" style="whiteSpace=wrap;html=1;align=center;fontFamily=Helvetica;fontSize=11;fontColor=default;labelBackgroundColor=default;" parent="1" vertex="1">
          <mxGeometry x="302" y="1056.5" width="64" height="26" as="geometry" />
        </mxCell>
        <mxCell id="K9c3699JtVxY8OUxqaeo-58" value="1" style="edgeStyle=none;shape=link;rounded=0;orthogonalLoop=1;jettySize=auto;html=1;exitX=0.5;exitY=1;exitDx=0;exitDy=0;entryX=0.5;entryY=0;entryDx=0;entryDy=0;strokeColor=default;align=center;verticalAlign=middle;fontFamily=Helvetica;fontSize=11;fontColor=default;labelBackgroundColor=default;startFill=0;endArrow=none;" parent="1" source="K9c3699JtVxY8OUxqaeo-56" target="K9c3699JtVxY8OUxqaeo-46" edge="1">
          <mxGeometry relative="1" as="geometry" />
        </mxCell>
        <mxCell id="K9c3699JtVxY8OUxqaeo-56" value="&lt;font style=&quot;font-size: 12px;&quot; data-font-src=&quot;https://fonts.googleapis.com/css?family=Amiri&quot; face=&quot;Amiri&quot;&gt;متناظر&lt;/font&gt;" style="shape=rhombus;perimeter=rhombusPerimeter;whiteSpace=wrap;html=1;align=center;fontFamily=Helvetica;fontSize=11;fontColor=default;labelBackgroundColor=default;" parent="1" vertex="1">
          <mxGeometry x="302" y="101" width="76" height="34" as="geometry" />
        </mxCell>
        <mxCell id="K9c3699JtVxY8OUxqaeo-62" value="&lt;font face=&quot;Amiri&quot;&gt;سطح&lt;/font&gt;" style="ellipse;whiteSpace=wrap;html=1;align=center;" parent="1" vertex="1">
          <mxGeometry x="336" y="1133" width="37" height="38" as="geometry" />
        </mxCell>
        <mxCell id="K9c3699JtVxY8OUxqaeo-63" style="edgeStyle=none;shape=connector;rounded=0;orthogonalLoop=1;jettySize=auto;html=1;exitX=0.5;exitY=1;exitDx=0;exitDy=0;entryX=0.5;entryY=0;entryDx=0;entryDy=0;strokeColor=default;align=center;verticalAlign=middle;fontFamily=Helvetica;fontSize=11;fontColor=default;labelBackgroundColor=default;startFill=0;endArrow=none;" parent="1" source="K9c3699JtVxY8OUxqaeo-46" target="K9c3699JtVxY8OUxqaeo-62" edge="1">
          <mxGeometry relative="1" as="geometry" />
        </mxCell>
        <mxCell id="cttu95DVh9DoGcVbJHbc-5" style="edgeStyle=none;shape=connector;rounded=0;orthogonalLoop=1;jettySize=auto;html=1;exitX=0;exitY=1;exitDx=0;exitDy=0;entryX=0.5;entryY=0;entryDx=0;entryDy=0;strokeColor=default;align=center;verticalAlign=middle;fontFamily=Helvetica;fontSize=11;fontColor=default;labelBackgroundColor=default;startFill=0;endArrow=none;" parent="1" source="hIyoUBsOdVbQB3T2yOtr-4" target="K9c3699JtVxY8OUxqaeo-46" edge="1">
          <mxGeometry relative="1" as="geometry" />
        </mxCell>
        <mxCell id="-JGs0fb6M8jb9qjW5vW--65" value="1" style="edgeLabel;html=1;align=center;verticalAlign=middle;resizable=0;points=[];" vertex="1" connectable="0" parent="cttu95DVh9DoGcVbJHbc-5">
          <mxGeometry x="-0.176" relative="1" as="geometry">
            <mxPoint as="offset" />
          </mxGeometry>
        </mxCell>
        <mxCell id="cttu95DVh9DoGcVbJHbc-6" style="edgeStyle=none;shape=link;rounded=0;orthogonalLoop=1;jettySize=auto;html=1;exitX=1;exitY=0;exitDx=0;exitDy=0;entryX=0.5;entryY=1;entryDx=0;entryDy=0;strokeColor=default;align=center;verticalAlign=middle;fontFamily=Helvetica;fontSize=11;fontColor=default;labelBackgroundColor=default;startFill=0;endArrow=none;" parent="1" source="hIyoUBsOdVbQB3T2yOtr-4" target="MN1CiRBbR8H1fu0ibKLE-50" edge="1">
          <mxGeometry relative="1" as="geometry" />
        </mxCell>
        <mxCell id="-JGs0fb6M8jb9qjW5vW--64" value="N" style="edgeLabel;html=1;align=center;verticalAlign=middle;resizable=0;points=[];" vertex="1" connectable="0" parent="cttu95DVh9DoGcVbJHbc-6">
          <mxGeometry x="-0.3503" y="-1" relative="1" as="geometry">
            <mxPoint as="offset" />
          </mxGeometry>
        </mxCell>
        <mxCell id="cttu95DVh9DoGcVbJHbc-21" style="edgeStyle=none;shape=connector;rounded=0;orthogonalLoop=1;jettySize=auto;html=1;exitX=0.5;exitY=0;exitDx=0;exitDy=0;entryX=0.5;entryY=1;entryDx=0;entryDy=0;strokeColor=default;align=center;verticalAlign=middle;fontFamily=Helvetica;fontSize=11;fontColor=default;labelBackgroundColor=default;startFill=0;endArrow=none;" parent="1" source="hIyoUBsOdVbQB3T2yOtr-4" target="hIyoUBsOdVbQB3T2yOtr-18" edge="1">
          <mxGeometry relative="1" as="geometry" />
        </mxCell>
        <mxCell id="hIyoUBsOdVbQB3T2yOtr-4" value="&lt;font face=&quot;Amiri&quot;&gt;ناظر&lt;/font&gt;" style="shape=rhombus;perimeter=rhombusPerimeter;whiteSpace=wrap;html=1;align=center;fontFamily=Helvetica;fontSize=11;fontColor=default;labelBackgroundColor=default;" parent="1" vertex="1">
          <mxGeometry x="396" y="863" width="59" height="38" as="geometry" />
        </mxCell>
        <mxCell id="hIyoUBsOdVbQB3T2yOtr-18" value="&lt;font face=&quot;Amiri&quot;&gt;شرح&lt;/font&gt;" style="ellipse;whiteSpace=wrap;html=1;align=center;" parent="1" vertex="1">
          <mxGeometry x="393.5" y="813" width="34" height="34" as="geometry" />
        </mxCell>
        <mxCell id="6hZY4R3OLh8B5wYLmfFH-13" style="edgeStyle=none;shape=connector;rounded=0;orthogonalLoop=1;jettySize=auto;html=1;exitX=1;exitY=0.5;exitDx=0;exitDy=0;entryX=0;entryY=1;entryDx=0;entryDy=0;strokeColor=default;align=center;verticalAlign=middle;fontFamily=Helvetica;fontSize=11;fontColor=default;labelBackgroundColor=default;startFill=0;endArrow=none;" parent="1" source="hIyoUBsOdVbQB3T2yOtr-26" target="hIyoUBsOdVbQB3T2yOtr-40" edge="1">
          <mxGeometry relative="1" as="geometry" />
        </mxCell>
        <mxCell id="6hZY4R3OLh8B5wYLmfFH-15" style="edgeStyle=none;shape=connector;rounded=0;orthogonalLoop=1;jettySize=auto;html=1;exitX=1;exitY=0.5;exitDx=0;exitDy=0;entryX=0;entryY=0.5;entryDx=0;entryDy=0;strokeColor=default;align=center;verticalAlign=middle;fontFamily=Helvetica;fontSize=11;fontColor=default;labelBackgroundColor=default;startFill=0;endArrow=none;" parent="1" source="hIyoUBsOdVbQB3T2yOtr-26" target="cttu95DVh9DoGcVbJHbc-32" edge="1">
          <mxGeometry relative="1" as="geometry" />
        </mxCell>
        <mxCell id="hIyoUBsOdVbQB3T2yOtr-26" value="&lt;font style=&quot;font-size: 14px;&quot; data-font-src=&quot;https://fonts.googleapis.com/css?family=Amiri&quot; face=&quot;Amiri&quot;&gt;نقل و انتقال&lt;/font&gt;" style="whiteSpace=wrap;html=1;align=center;fontFamily=Helvetica;fontSize=11;fontColor=default;labelBackgroundColor=default;" parent="1" vertex="1">
          <mxGeometry x="1183" y="305.5" width="74" height="29" as="geometry" />
        </mxCell>
        <mxCell id="hIyoUBsOdVbQB3T2yOtr-31" value="1" style="edgeStyle=none;shape=connector;rounded=0;orthogonalLoop=1;jettySize=auto;html=1;exitX=0.5;exitY=1;exitDx=0;exitDy=0;entryX=0.5;entryY=0;entryDx=0;entryDy=0;strokeColor=default;align=center;verticalAlign=middle;fontFamily=Helvetica;fontSize=11;fontColor=default;labelBackgroundColor=default;startFill=0;endArrow=none;" parent="1" source="hIyoUBsOdVbQB3T2yOtr-27" target="MN1CiRBbR8H1fu0ibKLE-33" edge="1">
          <mxGeometry relative="1" as="geometry" />
        </mxCell>
        <mxCell id="hIyoUBsOdVbQB3T2yOtr-27" value="&lt;font data-font-src=&quot;https://fonts.googleapis.com/css?family=Amiri&quot; face=&quot;Amiri&quot;&gt;فروشنده&lt;/font&gt;" style="shape=rhombus;perimeter=rhombusPerimeter;whiteSpace=wrap;html=1;align=center;fontFamily=Helvetica;fontSize=11;fontColor=default;labelBackgroundColor=default;" parent="1" vertex="1">
          <mxGeometry x="1161" y="399.5" width="59" height="37" as="geometry" />
        </mxCell>
        <mxCell id="hIyoUBsOdVbQB3T2yOtr-29" value="N" style="edgeStyle=none;shape=connector;rounded=0;orthogonalLoop=1;jettySize=auto;html=1;exitX=0.5;exitY=0;exitDx=0;exitDy=0;entryX=0.5;entryY=1;entryDx=0;entryDy=0;strokeColor=default;align=center;verticalAlign=middle;fontFamily=Helvetica;fontSize=11;fontColor=default;labelBackgroundColor=default;startFill=0;endArrow=none;" parent="1" source="hIyoUBsOdVbQB3T2yOtr-28" target="hIyoUBsOdVbQB3T2yOtr-26" edge="1">
          <mxGeometry relative="1" as="geometry" />
        </mxCell>
        <mxCell id="hIyoUBsOdVbQB3T2yOtr-32" value="1" style="edgeStyle=none;shape=connector;rounded=0;orthogonalLoop=1;jettySize=auto;html=1;entryX=0.5;entryY=0;entryDx=0;entryDy=0;strokeColor=default;align=center;verticalAlign=middle;fontFamily=Helvetica;fontSize=11;fontColor=default;labelBackgroundColor=default;startFill=0;endArrow=none;exitX=0.5;exitY=1;exitDx=0;exitDy=0;" parent="1" source="hIyoUBsOdVbQB3T2yOtr-28" target="MN1CiRBbR8H1fu0ibKLE-33" edge="1">
          <mxGeometry relative="1" as="geometry">
            <mxPoint x="1257" y="410" as="sourcePoint" />
          </mxGeometry>
        </mxCell>
        <mxCell id="hIyoUBsOdVbQB3T2yOtr-28" value="&lt;font data-font-src=&quot;https://fonts.googleapis.com/css?family=Amiri&quot; face=&quot;Amiri&quot;&gt;خریدار&lt;/font&gt;" style="shape=rhombus;perimeter=rhombusPerimeter;whiteSpace=wrap;html=1;align=center;fontFamily=Helvetica;fontSize=11;fontColor=default;labelBackgroundColor=default;" parent="1" vertex="1">
          <mxGeometry x="1231" y="402" width="49" height="32" as="geometry" />
        </mxCell>
        <mxCell id="hIyoUBsOdVbQB3T2yOtr-30" value="N" style="edgeStyle=none;shape=connector;rounded=0;orthogonalLoop=1;jettySize=auto;html=1;exitX=0.5;exitY=0;exitDx=0;exitDy=0;entryX=0.5;entryY=1;entryDx=0;entryDy=0;strokeColor=default;align=center;verticalAlign=middle;fontFamily=Helvetica;fontSize=11;fontColor=default;labelBackgroundColor=default;startFill=0;endArrow=none;" parent="1" source="hIyoUBsOdVbQB3T2yOtr-27" target="hIyoUBsOdVbQB3T2yOtr-26" edge="1">
          <mxGeometry relative="1" as="geometry" />
        </mxCell>
        <mxCell id="hIyoUBsOdVbQB3T2yOtr-35" value="N" style="edgeStyle=none;shape=link;rounded=0;orthogonalLoop=1;jettySize=auto;html=1;exitX=1;exitY=0.5;exitDx=0;exitDy=0;strokeColor=default;align=center;verticalAlign=middle;fontFamily=Helvetica;fontSize=11;fontColor=default;labelBackgroundColor=default;startFill=0;endArrow=none;entryX=0;entryY=0.5;entryDx=0;entryDy=0;" parent="1" source="hIyoUBsOdVbQB3T2yOtr-33" target="hIyoUBsOdVbQB3T2yOtr-26" edge="1">
          <mxGeometry relative="1" as="geometry" />
        </mxCell>
        <mxCell id="hIyoUBsOdVbQB3T2yOtr-33" value="&lt;font data-font-src=&quot;https://fonts.googleapis.com/css?family=Amiri&quot; face=&quot;Amiri&quot; style=&quot;font-size: 12px;&quot;&gt;حضور&lt;/font&gt;" style="shape=rhombus;perimeter=rhombusPerimeter;whiteSpace=wrap;html=1;align=center;fontFamily=Helvetica;fontSize=11;fontColor=default;labelBackgroundColor=default;" parent="1" vertex="1">
          <mxGeometry x="1089.5" y="304" width="56" height="32" as="geometry" />
        </mxCell>
        <mxCell id="6hZY4R3OLh8B5wYLmfFH-11" style="edgeStyle=none;shape=connector;rounded=0;orthogonalLoop=1;jettySize=auto;html=1;exitX=0.5;exitY=0;exitDx=0;exitDy=0;entryX=1;entryY=0.5;entryDx=0;entryDy=0;strokeColor=default;align=center;verticalAlign=middle;fontFamily=Helvetica;fontSize=11;fontColor=default;labelBackgroundColor=default;startFill=0;endArrow=none;" parent="1" source="hIyoUBsOdVbQB3T2yOtr-36" target="hIyoUBsOdVbQB3T2yOtr-26" edge="1">
          <mxGeometry relative="1" as="geometry" />
        </mxCell>
        <mxCell id="hIyoUBsOdVbQB3T2yOtr-36" value="&lt;font face=&quot;Amiri&quot;&gt;مبلغ&lt;/font&gt;" style="ellipse;whiteSpace=wrap;html=1;align=center;" parent="1" vertex="1">
          <mxGeometry x="1260" y="220" width="37" height="33" as="geometry" />
        </mxCell>
        <mxCell id="6hZY4R3OLh8B5wYLmfFH-12" style="edgeStyle=none;shape=connector;rounded=0;orthogonalLoop=1;jettySize=auto;html=1;exitX=0;exitY=0.5;exitDx=0;exitDy=0;entryX=1;entryY=0.5;entryDx=0;entryDy=0;strokeColor=default;align=center;verticalAlign=middle;fontFamily=Helvetica;fontSize=11;fontColor=default;labelBackgroundColor=default;startFill=0;endArrow=none;" parent="1" source="hIyoUBsOdVbQB3T2yOtr-38" target="hIyoUBsOdVbQB3T2yOtr-26" edge="1">
          <mxGeometry relative="1" as="geometry" />
        </mxCell>
        <mxCell id="hIyoUBsOdVbQB3T2yOtr-38" value="&lt;font face=&quot;Amiri&quot;&gt;کشور مبدا&lt;/font&gt;" style="ellipse;whiteSpace=wrap;html=1;align=center;" parent="1" vertex="1">
          <mxGeometry x="1316" y="309" width="37" height="33" as="geometry" />
        </mxCell>
        <mxCell id="hIyoUBsOdVbQB3T2yOtr-40" value="&lt;font face=&quot;Amiri&quot;&gt;کشور مقصد&lt;/font&gt;" style="ellipse;whiteSpace=wrap;html=1;align=center;" parent="1" vertex="1">
          <mxGeometry x="1301.5" y="229.5" width="37" height="33" as="geometry" />
        </mxCell>
        <mxCell id="6hZY4R3OLh8B5wYLmfFH-14" style="edgeStyle=none;shape=connector;rounded=0;orthogonalLoop=1;jettySize=auto;html=1;exitX=0;exitY=0;exitDx=0;exitDy=0;entryX=1;entryY=0.5;entryDx=0;entryDy=0;strokeColor=default;align=center;verticalAlign=middle;fontFamily=Helvetica;fontSize=11;fontColor=default;labelBackgroundColor=default;startFill=0;endArrow=none;" parent="1" source="hIyoUBsOdVbQB3T2yOtr-42" target="hIyoUBsOdVbQB3T2yOtr-26" edge="1">
          <mxGeometry relative="1" as="geometry" />
        </mxCell>
        <mxCell id="hIyoUBsOdVbQB3T2yOtr-42" value="&lt;font face=&quot;Amiri&quot;&gt;نام تیم مبدا&lt;/font&gt;" style="ellipse;whiteSpace=wrap;html=1;align=center;" parent="1" vertex="1">
          <mxGeometry x="1316" y="347" width="37" height="33" as="geometry" />
        </mxCell>
        <mxCell id="6hZY4R3OLh8B5wYLmfFH-17" style="edgeStyle=none;shape=connector;rounded=0;orthogonalLoop=1;jettySize=auto;html=1;exitX=0.5;exitY=0;exitDx=0;exitDy=0;entryX=1;entryY=0.5;entryDx=0;entryDy=0;strokeColor=default;align=center;verticalAlign=middle;fontFamily=Helvetica;fontSize=11;fontColor=default;labelBackgroundColor=default;startFill=0;endArrow=none;" parent="1" source="hIyoUBsOdVbQB3T2yOtr-44" target="hIyoUBsOdVbQB3T2yOtr-26" edge="1">
          <mxGeometry relative="1" as="geometry" />
        </mxCell>
        <mxCell id="hIyoUBsOdVbQB3T2yOtr-44" value="&lt;font face=&quot;Amiri&quot;&gt;نام تیم مقصد&lt;/font&gt;" style="ellipse;whiteSpace=wrap;html=1;align=center;" parent="1" vertex="1">
          <mxGeometry x="1311" y="384" width="37" height="33" as="geometry" />
        </mxCell>
        <mxCell id="iGNBCUcOV2SLzTZLeVJy-2" value="&lt;font data-font-src=&quot;https://fonts.googleapis.com/css?family=Amiri&quot; face=&quot;Amiri&quot; style=&quot;font-size: 12px;&quot;&gt;متعلق به&lt;/font&gt;" style="shape=rhombus;double=1;perimeter=rhombusPerimeter;whiteSpace=wrap;html=1;align=center;fontFamily=Helvetica;fontSize=11;fontColor=default;labelBackgroundColor=default;" parent="1" vertex="1">
          <mxGeometry x="1336.3" y="899" width="78" height="48" as="geometry" />
        </mxCell>
        <mxCell id="iGNBCUcOV2SLzTZLeVJy-6" value="1" style="edgeStyle=none;shape=connector;rounded=0;orthogonalLoop=1;jettySize=auto;html=1;strokeColor=default;align=center;verticalAlign=middle;fontFamily=Helvetica;fontSize=11;fontColor=default;labelBackgroundColor=default;startFill=0;endArrow=none;entryX=0.5;entryY=0;entryDx=0;entryDy=0;exitX=0.5;exitY=1;exitDx=0;exitDy=0;" parent="1" source="MN1CiRBbR8H1fu0ibKLE-85" target="iGNBCUcOV2SLzTZLeVJy-2" edge="1">
          <mxGeometry x="0.0163" relative="1" as="geometry">
            <mxPoint x="1290" y="667" as="sourcePoint" />
            <mxPoint x="1298" y="717" as="targetPoint" />
            <mxPoint as="offset" />
          </mxGeometry>
        </mxCell>
        <mxCell id="cttu95DVh9DoGcVbJHbc-13" value="1" style="edgeStyle=none;shape=connector;rounded=0;orthogonalLoop=1;jettySize=auto;html=1;exitX=0.5;exitY=0;exitDx=0;exitDy=0;entryX=0.5;entryY=1;entryDx=0;entryDy=0;strokeColor=default;align=center;verticalAlign=middle;fontFamily=Helvetica;fontSize=11;fontColor=default;labelBackgroundColor=default;startFill=0;endArrow=none;" parent="1" source="iGNBCUcOV2SLzTZLeVJy-8" target="iGNBCUcOV2SLzTZLeVJy-2" edge="1">
          <mxGeometry relative="1" as="geometry" />
        </mxCell>
        <mxCell id="cttu95DVh9DoGcVbJHbc-23" style="edgeStyle=none;shape=connector;rounded=0;orthogonalLoop=1;jettySize=auto;html=1;exitX=0;exitY=0.5;exitDx=0;exitDy=0;entryX=1;entryY=0.5;entryDx=0;entryDy=0;strokeColor=default;align=center;verticalAlign=middle;fontFamily=Helvetica;fontSize=11;fontColor=default;labelBackgroundColor=default;startFill=0;endArrow=none;" parent="1" source="iGNBCUcOV2SLzTZLeVJy-8" target="cttu95DVh9DoGcVbJHbc-22" edge="1">
          <mxGeometry relative="1" as="geometry" />
        </mxCell>
        <mxCell id="iGNBCUcOV2SLzTZLeVJy-8" value="&lt;span style=&quot;font-size: 14px;&quot;&gt;کمیته داوران&lt;/span&gt;" style="shape=ext;margin=3;double=1;whiteSpace=wrap;html=1;align=center;fontFamily=Helvetica;fontSize=11;fontColor=default;labelBackgroundColor=default;" parent="1" vertex="1">
          <mxGeometry x="1335.6" y="1049" width="78.7" height="47" as="geometry" />
        </mxCell>
        <mxCell id="iGNBCUcOV2SLzTZLeVJy-15" style="edgeStyle=none;shape=connector;rounded=0;orthogonalLoop=1;jettySize=auto;html=1;exitX=0.5;exitY=1;exitDx=0;exitDy=0;entryX=0.5;entryY=0;entryDx=0;entryDy=0;strokeColor=default;align=center;verticalAlign=middle;fontFamily=Helvetica;fontSize=11;fontColor=default;labelBackgroundColor=default;startFill=0;endArrow=none;" parent="1" edge="1" source="MN1CiRBbR8H1fu0ibKLE-61">
          <mxGeometry relative="1" as="geometry">
            <mxPoint x="1143.5" y="624" as="sourcePoint" />
            <mxPoint x="998.5" y="734" as="targetPoint" />
          </mxGeometry>
        </mxCell>
        <mxCell id="iGNBCUcOV2SLzTZLeVJy-17" style="edgeStyle=none;shape=connector;rounded=0;orthogonalLoop=1;jettySize=auto;html=1;exitX=0.5;exitY=1;exitDx=0;exitDy=0;entryX=0.5;entryY=0;entryDx=0;entryDy=0;strokeColor=default;align=center;verticalAlign=middle;fontFamily=Helvetica;fontSize=11;fontColor=default;labelBackgroundColor=default;startFill=0;endArrow=none;" parent="1" source="MN1CiRBbR8H1fu0ibKLE-61" edge="1">
          <mxGeometry relative="1" as="geometry">
            <mxPoint x="1175" y="632.5" as="sourcePoint" />
            <mxPoint x="1028.5" y="737" as="targetPoint" />
          </mxGeometry>
        </mxCell>
        <mxCell id="iGNBCUcOV2SLzTZLeVJy-19" style="edgeStyle=none;shape=connector;rounded=0;orthogonalLoop=1;jettySize=auto;html=1;entryX=0.5;entryY=0;entryDx=0;entryDy=0;strokeColor=default;align=center;verticalAlign=middle;fontFamily=Helvetica;fontSize=11;fontColor=default;labelBackgroundColor=default;startFill=0;endArrow=none;exitX=0.5;exitY=1;exitDx=0;exitDy=0;" parent="1" source="MN1CiRBbR8H1fu0ibKLE-61" edge="1">
          <mxGeometry relative="1" as="geometry">
            <mxPoint x="1172" y="623" as="sourcePoint" />
            <mxPoint x="1065.5" y="731.75" as="targetPoint" />
          </mxGeometry>
        </mxCell>
        <mxCell id="cttu95DVh9DoGcVbJHbc-18" value="N" style="edgeStyle=none;shape=connector;rounded=0;orthogonalLoop=1;jettySize=auto;html=1;exitX=0;exitY=0.5;exitDx=0;exitDy=0;entryX=1;entryY=0.5;entryDx=0;entryDy=0;strokeColor=default;align=center;verticalAlign=middle;fontFamily=Helvetica;fontSize=11;fontColor=default;labelBackgroundColor=default;startFill=0;endArrow=none;" parent="1" source="iGNBCUcOV2SLzTZLeVJy-20" target="K9c3699JtVxY8OUxqaeo-46" edge="1">
          <mxGeometry relative="1" as="geometry" />
        </mxCell>
        <mxCell id="iGNBCUcOV2SLzTZLeVJy-20" value="حضور" style="shape=rhombus;perimeter=rhombusPerimeter;whiteSpace=wrap;html=1;align=center;fontFamily=Helvetica;fontSize=11;fontColor=default;labelBackgroundColor=default;" parent="1" vertex="1">
          <mxGeometry x="726" y="1056.5" width="49" height="32" as="geometry" />
        </mxCell>
        <mxCell id="iGNBCUcOV2SLzTZLeVJy-21" value="1" style="edgeStyle=none;shape=connector;rounded=0;orthogonalLoop=1;jettySize=auto;html=1;entryX=1;entryY=0.5;entryDx=0;entryDy=0;strokeColor=default;align=center;verticalAlign=middle;fontFamily=Helvetica;fontSize=11;fontColor=default;labelBackgroundColor=default;startFill=0;endArrow=none;exitX=0;exitY=0.5;exitDx=0;exitDy=0;" parent="1" source="iGNBCUcOV2SLzTZLeVJy-8" target="iGNBCUcOV2SLzTZLeVJy-20" edge="1">
          <mxGeometry relative="1" as="geometry">
            <mxPoint as="offset" />
            <mxPoint x="1235" y="1030" as="sourcePoint" />
            <mxPoint x="1307" y="1083" as="targetPoint" />
          </mxGeometry>
        </mxCell>
        <mxCell id="iGNBCUcOV2SLzTZLeVJy-23" value="" style="group" parent="1" connectable="0" vertex="1">
          <mxGeometry x="285.00000000000006" y="1124" width="37" height="38" as="geometry" />
        </mxCell>
        <mxCell id="K9c3699JtVxY8OUxqaeo-59" value="&lt;font face=&quot;Amiri&quot;&gt;شناسه&lt;/font&gt;" style="ellipse;whiteSpace=wrap;html=1;align=center;" parent="iGNBCUcOV2SLzTZLeVJy-23" vertex="1">
          <mxGeometry width="37" height="38" as="geometry" />
        </mxCell>
        <mxCell id="K9c3699JtVxY8OUxqaeo-60" value="" style="endArrow=none;html=1;rounded=0;strokeColor=default;align=center;verticalAlign=middle;fontFamily=Helvetica;fontSize=11;fontColor=default;labelBackgroundColor=default;strokeWidth=3;" parent="iGNBCUcOV2SLzTZLeVJy-23" edge="1">
          <mxGeometry width="50" height="50" relative="1" as="geometry">
            <mxPoint x="2" y="30" as="sourcePoint" />
            <mxPoint x="35" y="30" as="targetPoint" />
          </mxGeometry>
        </mxCell>
        <mxCell id="iGNBCUcOV2SLzTZLeVJy-40" value="" style="group" parent="1" connectable="0" vertex="1">
          <mxGeometry x="1470" y="765" width="49" height="41" as="geometry" />
        </mxCell>
        <mxCell id="MN1CiRBbR8H1fu0ibKLE-90" value="&lt;font data-font-src=&quot;https://fonts.googleapis.com/css?family=Amiri&quot; face=&quot;Amiri&quot;&gt;از-تا&lt;/font&gt;" style="ellipse;whiteSpace=wrap;html=1;align=center;" parent="iGNBCUcOV2SLzTZLeVJy-40" vertex="1">
          <mxGeometry width="49" height="41" as="geometry" />
        </mxCell>
        <mxCell id="MN1CiRBbR8H1fu0ibKLE-91" value="" style="endArrow=none;html=1;rounded=0;strokeColor=default;align=center;verticalAlign=middle;fontFamily=Helvetica;fontSize=11;fontColor=default;labelBackgroundColor=default;strokeWidth=3;dashed=1;dashPattern=1 2;" parent="iGNBCUcOV2SLzTZLeVJy-40" edge="1">
          <mxGeometry width="50" height="50" relative="1" as="geometry">
            <mxPoint x="8" y="31" as="sourcePoint" />
            <mxPoint x="41" y="31" as="targetPoint" />
          </mxGeometry>
        </mxCell>
        <mxCell id="iGNBCUcOV2SLzTZLeVJy-41" value="" style="group" parent="1" connectable="0" vertex="1">
          <mxGeometry x="860.5" y="883.5" width="43.5" height="31.5" as="geometry" />
        </mxCell>
        <mxCell id="MN1CiRBbR8H1fu0ibKLE-133" value="&lt;font face=&quot;Amiri&quot;&gt;شناسه&lt;/font&gt;" style="ellipse;whiteSpace=wrap;html=1;align=center;" parent="iGNBCUcOV2SLzTZLeVJy-41" vertex="1">
          <mxGeometry width="43.5" height="31.5" as="geometry" />
        </mxCell>
        <mxCell id="MN1CiRBbR8H1fu0ibKLE-134" value="" style="endArrow=none;html=1;rounded=0;strokeColor=default;align=center;verticalAlign=middle;fontFamily=Helvetica;fontSize=11;fontColor=default;labelBackgroundColor=default;strokeWidth=3;" parent="iGNBCUcOV2SLzTZLeVJy-41" edge="1">
          <mxGeometry width="50" height="50" relative="1" as="geometry">
            <mxPoint x="7.1020408163265305" y="26.121951219512194" as="sourcePoint" />
            <mxPoint x="36.39795918367347" y="26.121951219512194" as="targetPoint" />
          </mxGeometry>
        </mxCell>
        <mxCell id="iGNBCUcOV2SLzTZLeVJy-42" value="" style="group" parent="1" connectable="0" vertex="1">
          <mxGeometry x="1081" y="847" width="49" height="41" as="geometry" />
        </mxCell>
        <mxCell id="K9c3699JtVxY8OUxqaeo-1" value="&lt;font data-font-src=&quot;https://fonts.googleapis.com/css?family=Amiri&quot; face=&quot;Amiri&quot;&gt;از-تا&lt;/font&gt;" style="ellipse;whiteSpace=wrap;html=1;align=center;" parent="iGNBCUcOV2SLzTZLeVJy-42" vertex="1">
          <mxGeometry width="49" height="41" as="geometry" />
        </mxCell>
        <mxCell id="K9c3699JtVxY8OUxqaeo-2" value="" style="endArrow=none;html=1;rounded=0;strokeColor=default;align=center;verticalAlign=middle;fontFamily=Helvetica;fontSize=11;fontColor=default;labelBackgroundColor=default;strokeWidth=3;dashed=1;dashPattern=1 2;" parent="iGNBCUcOV2SLzTZLeVJy-42" edge="1">
          <mxGeometry width="50" height="50" relative="1" as="geometry">
            <mxPoint x="12" y="29" as="sourcePoint" />
            <mxPoint x="45" y="29" as="targetPoint" />
          </mxGeometry>
        </mxCell>
        <mxCell id="iGNBCUcOV2SLzTZLeVJy-44" value="" style="group" parent="1" connectable="0" vertex="1">
          <mxGeometry x="1447" y="487" width="49" height="41" as="geometry" />
        </mxCell>
        <mxCell id="MN1CiRBbR8H1fu0ibKLE-79" value="&lt;font face=&quot;Amiri&quot;&gt;شناسه&lt;/font&gt;" style="ellipse;whiteSpace=wrap;html=1;align=center;" parent="iGNBCUcOV2SLzTZLeVJy-44" vertex="1">
          <mxGeometry width="49" height="41" as="geometry" />
        </mxCell>
        <mxCell id="MN1CiRBbR8H1fu0ibKLE-81" value="" style="endArrow=none;html=1;rounded=0;strokeColor=default;align=center;verticalAlign=middle;fontFamily=Helvetica;fontSize=11;fontColor=default;labelBackgroundColor=default;strokeWidth=3;" parent="iGNBCUcOV2SLzTZLeVJy-44" edge="1">
          <mxGeometry width="50" height="50" relative="1" as="geometry">
            <mxPoint x="8" y="35" as="sourcePoint" />
            <mxPoint x="41" y="35" as="targetPoint" />
          </mxGeometry>
        </mxCell>
        <mxCell id="iGNBCUcOV2SLzTZLeVJy-45" style="edgeStyle=none;shape=connector;rounded=0;orthogonalLoop=1;jettySize=auto;html=1;exitX=1;exitY=0.5;exitDx=0;exitDy=0;entryX=0;entryY=1;entryDx=0;entryDy=0;strokeColor=default;align=center;verticalAlign=middle;fontFamily=Helvetica;fontSize=11;fontColor=default;labelBackgroundColor=default;startFill=0;endArrow=none;" parent="1" source="MN1CiRBbR8H1fu0ibKLE-74" target="iGNBCUcOV2SLzTZLeVJy-47" edge="1">
          <mxGeometry relative="1" as="geometry">
            <mxPoint x="1346" y="526" as="sourcePoint" />
          </mxGeometry>
        </mxCell>
        <mxCell id="iGNBCUcOV2SLzTZLeVJy-46" value="" style="group" parent="1" connectable="0" vertex="1">
          <mxGeometry x="1447" y="537" width="49" height="41" as="geometry" />
        </mxCell>
        <mxCell id="iGNBCUcOV2SLzTZLeVJy-47" value="&lt;font face=&quot;Amiri&quot;&gt;نام&lt;/font&gt;" style="ellipse;whiteSpace=wrap;html=1;align=center;" parent="iGNBCUcOV2SLzTZLeVJy-46" vertex="1">
          <mxGeometry width="49" height="41" as="geometry" />
        </mxCell>
        <mxCell id="iGNBCUcOV2SLzTZLeVJy-58" style="rounded=0;orthogonalLoop=1;jettySize=auto;html=1;exitX=0;exitY=1;exitDx=0;exitDy=0;entryX=0.5;entryY=0;entryDx=0;entryDy=0;endArrow=none;startFill=0;" parent="1" source="iGNBCUcOV2SLzTZLeVJy-59" target="K9c3699JtVxY8OUxqaeo-21" edge="1">
          <mxGeometry relative="1" as="geometry">
            <mxPoint x="697" y="588" as="targetPoint" />
          </mxGeometry>
        </mxCell>
        <mxCell id="hgn5-UgbgFa5v8DhDo9k-1" value="&lt;font face=&quot;Amiri&quot;&gt;کرنر&lt;/font&gt;" style="ellipse;whiteSpace=wrap;html=1;align=center;" parent="1" vertex="1">
          <mxGeometry x="805" y="551" width="25" height="27" as="geometry" />
        </mxCell>
        <mxCell id="hgn5-UgbgFa5v8DhDo9k-2" value="&lt;font face=&quot;Amiri&quot;&gt;پاس&lt;/font&gt;" style="ellipse;whiteSpace=wrap;html=1;align=center;" parent="1" vertex="1">
          <mxGeometry x="833.5" y="537" width="25" height="27" as="geometry" />
        </mxCell>
        <mxCell id="hgn5-UgbgFa5v8DhDo9k-3" value="&lt;font face=&quot;Amiri&quot;&gt;شوت&lt;/font&gt;" style="ellipse;whiteSpace=wrap;html=1;align=center;" parent="1" vertex="1">
          <mxGeometry x="865" y="537" width="25" height="27" as="geometry" />
        </mxCell>
        <mxCell id="cttu95DVh9DoGcVbJHbc-4" style="edgeStyle=none;shape=connector;rounded=0;orthogonalLoop=1;jettySize=auto;html=1;entryX=0.5;entryY=0;entryDx=0;entryDy=0;strokeColor=default;align=center;verticalAlign=middle;fontFamily=Helvetica;fontSize=11;fontColor=default;labelBackgroundColor=default;startFill=0;endArrow=none;exitX=0;exitY=1;exitDx=0;exitDy=0;" parent="1" source="cttu95DVh9DoGcVbJHbc-2" target="K9c3699JtVxY8OUxqaeo-46" edge="1">
          <mxGeometry relative="1" as="geometry">
            <mxPoint x="673" y="898" as="sourcePoint" />
          </mxGeometry>
        </mxCell>
        <mxCell id="-JGs0fb6M8jb9qjW5vW--2" value="1" style="edgeLabel;html=1;align=center;verticalAlign=middle;resizable=0;points=[];" vertex="1" connectable="0" parent="cttu95DVh9DoGcVbJHbc-4">
          <mxGeometry x="-0.0798" y="1" relative="1" as="geometry">
            <mxPoint as="offset" />
          </mxGeometry>
        </mxCell>
        <mxCell id="cttu95DVh9DoGcVbJHbc-8" style="edgeStyle=none;shape=connector;rounded=0;orthogonalLoop=1;jettySize=auto;html=1;entryX=0.5;entryY=1;entryDx=0;entryDy=0;strokeColor=default;align=center;verticalAlign=middle;fontFamily=Helvetica;fontSize=11;fontColor=default;labelBackgroundColor=default;startFill=0;endArrow=none;exitX=0.5;exitY=1;exitDx=0;exitDy=0;" parent="1" source="cttu95DVh9DoGcVbJHbc-2" target="cttu95DVh9DoGcVbJHbc-7" edge="1">
          <mxGeometry relative="1" as="geometry">
            <mxPoint x="619" y="976" as="sourcePoint" />
          </mxGeometry>
        </mxCell>
        <mxCell id="cttu95DVh9DoGcVbJHbc-2" value="&lt;font data-font-src=&quot;https://fonts.googleapis.com/css?family=Amiri&quot; face=&quot;Amiri&quot;&gt;داوری&lt;/font&gt;" style="shape=rhombus;perimeter=rhombusPerimeter;whiteSpace=wrap;html=1;align=center;fontFamily=Helvetica;fontSize=11;fontColor=default;labelBackgroundColor=default;" parent="1" vertex="1">
          <mxGeometry x="538" y="901.35" width="59" height="38" as="geometry" />
        </mxCell>
        <mxCell id="cttu95DVh9DoGcVbJHbc-27" style="edgeStyle=none;shape=connector;rounded=0;orthogonalLoop=1;jettySize=auto;html=1;exitX=0;exitY=1;exitDx=0;exitDy=0;entryX=1;entryY=0.5;entryDx=0;entryDy=0;strokeColor=default;align=center;verticalAlign=middle;fontFamily=Helvetica;fontSize=11;fontColor=default;labelBackgroundColor=default;startFill=0;endArrow=none;" parent="1" source="cttu95DVh9DoGcVbJHbc-22" target="cttu95DVh9DoGcVbJHbc-26" edge="1">
          <mxGeometry relative="1" as="geometry" />
        </mxCell>
        <mxCell id="cttu95DVh9DoGcVbJHbc-22" value="امتیاز می‌دهد" style="shape=rhombus;perimeter=rhombusPerimeter;whiteSpace=wrap;html=1;align=center;fontFamily=Helvetica;fontSize=11;fontColor=default;labelBackgroundColor=default;" parent="1" vertex="1">
          <mxGeometry x="726" y="1108" width="89" height="32" as="geometry" />
        </mxCell>
        <mxCell id="cttu95DVh9DoGcVbJHbc-25" style="edgeStyle=none;shape=connector;rounded=0;orthogonalLoop=1;jettySize=auto;html=1;exitX=0;exitY=0.5;exitDx=0;exitDy=0;entryX=0.5;entryY=1;entryDx=0;entryDy=0;strokeColor=default;align=center;verticalAlign=middle;fontFamily=Helvetica;fontSize=11;fontColor=default;labelBackgroundColor=default;startFill=0;endArrow=none;" parent="1" source="cttu95DVh9DoGcVbJHbc-22" target="cttu95DVh9DoGcVbJHbc-17" edge="1">
          <mxGeometry relative="1" as="geometry" />
        </mxCell>
        <mxCell id="6hZY4R3OLh8B5wYLmfFH-3" style="edgeStyle=orthogonalEdgeStyle;rounded=0;orthogonalLoop=1;jettySize=auto;html=1;exitX=0.5;exitY=1;exitDx=0;exitDy=0;" parent="1" source="hIyoUBsOdVbQB3T2yOtr-26" target="hIyoUBsOdVbQB3T2yOtr-26" edge="1">
          <mxGeometry relative="1" as="geometry" />
        </mxCell>
        <mxCell id="6hZY4R3OLh8B5wYLmfFH-21" style="edgeStyle=none;shape=connector;rounded=0;orthogonalLoop=1;jettySize=auto;html=1;exitX=1;exitY=0.5;exitDx=0;exitDy=0;entryX=0;entryY=0.5;entryDx=0;entryDy=0;strokeColor=default;align=center;verticalAlign=middle;fontFamily=Helvetica;fontSize=11;fontColor=default;labelBackgroundColor=default;startFill=0;endArrow=none;" parent="1" source="6hZY4R3OLh8B5wYLmfFH-7" target="6hZY4R3OLh8B5wYLmfFH-20" edge="1">
          <mxGeometry relative="1" as="geometry" />
        </mxCell>
        <mxCell id="6hZY4R3OLh8B5wYLmfFH-22" style="edgeStyle=none;shape=connector;rounded=0;orthogonalLoop=1;jettySize=auto;html=1;exitX=1;exitY=0.5;exitDx=0;exitDy=0;entryX=0;entryY=1;entryDx=0;entryDy=0;strokeColor=default;align=center;verticalAlign=middle;fontFamily=Helvetica;fontSize=11;fontColor=default;labelBackgroundColor=default;startFill=0;endArrow=none;" parent="1" source="6hZY4R3OLh8B5wYLmfFH-7" target="6hZY4R3OLh8B5wYLmfFH-19" edge="1">
          <mxGeometry relative="1" as="geometry" />
        </mxCell>
        <mxCell id="6hZY4R3OLh8B5wYLmfFH-7" value="&lt;font data-font-src=&quot;https://fonts.googleapis.com/css?family=Amiri&quot; face=&quot;Amiri&quot; style=&quot;font-size: 12px;&quot;&gt;دارد&lt;/font&gt;" style="shape=rhombus;perimeter=rhombusPerimeter;whiteSpace=wrap;html=1;align=center;fontFamily=Helvetica;fontSize=11;fontColor=default;labelBackgroundColor=default;" parent="1" vertex="1">
          <mxGeometry x="1525" y="583.91" width="42" height="32" as="geometry" />
        </mxCell>
        <mxCell id="6hZY4R3OLh8B5wYLmfFH-8" value="N" style="rounded=0;orthogonalLoop=1;jettySize=auto;html=1;exitX=0;exitY=0.5;exitDx=0;exitDy=0;entryX=0.369;entryY=0.004;entryDx=0;entryDy=0;endArrow=none;startFill=0;entryPerimeter=0;" parent="1" source="6hZY4R3OLh8B5wYLmfFH-7" target="6hZY4R3OLh8B5wYLmfFH-6" edge="1">
          <mxGeometry relative="1" as="geometry" />
        </mxCell>
        <mxCell id="6hZY4R3OLh8B5wYLmfFH-19" value="&lt;font face=&quot;Amiri&quot;&gt;از&lt;/font&gt;" style="ellipse;whiteSpace=wrap;html=1;align=center;" parent="1" vertex="1">
          <mxGeometry x="1582" y="618" width="23" height="23" as="geometry" />
        </mxCell>
        <mxCell id="6hZY4R3OLh8B5wYLmfFH-20" value="&lt;font face=&quot;Amiri&quot;&gt;تا&lt;/font&gt;" style="ellipse;whiteSpace=wrap;html=1;align=center;" parent="1" vertex="1">
          <mxGeometry x="1582" y="588.41" width="23" height="23" as="geometry" />
        </mxCell>
        <mxCell id="6hZY4R3OLh8B5wYLmfFH-24" style="edgeStyle=none;shape=connector;rounded=0;orthogonalLoop=1;jettySize=auto;html=1;exitX=0;exitY=0;exitDx=0;exitDy=0;entryX=1;entryY=0.5;entryDx=0;entryDy=0;strokeColor=default;align=center;verticalAlign=middle;fontFamily=Helvetica;fontSize=11;fontColor=default;labelBackgroundColor=default;startFill=0;endArrow=none;" parent="1" source="6hZY4R3OLh8B5wYLmfFH-23" target="hIyoUBsOdVbQB3T2yOtr-26" edge="1">
          <mxGeometry relative="1" as="geometry" />
        </mxCell>
        <mxCell id="6hZY4R3OLh8B5wYLmfFH-23" value="&lt;font face=&quot;Amiri&quot;&gt;تاریخ&lt;/font&gt;" style="ellipse;whiteSpace=wrap;html=1;align=center;" parent="1" vertex="1">
          <mxGeometry x="1220" y="220" width="37" height="33" as="geometry" />
        </mxCell>
        <mxCell id="-JGs0fb6M8jb9qjW5vW--3" value="" style="group" vertex="1" connectable="0" parent="1">
          <mxGeometry x="359" y="155" width="49" height="41" as="geometry" />
        </mxCell>
        <mxCell id="iGNBCUcOV2SLzTZLeVJy-59" value="&lt;font face=&quot;Amiri&quot;&gt;دقیقه&lt;/font&gt;" style="ellipse;whiteSpace=wrap;html=1;align=center;" parent="-JGs0fb6M8jb9qjW5vW--3" vertex="1">
          <mxGeometry width="49" height="41" as="geometry" />
        </mxCell>
        <mxCell id="cttu95DVh9DoGcVbJHbc-35" value="" style="endArrow=none;html=1;rounded=0;strokeColor=default;align=center;verticalAlign=middle;fontFamily=Helvetica;fontSize=11;fontColor=default;labelBackgroundColor=default;strokeWidth=3;dashed=1;dashPattern=1 2;" parent="-JGs0fb6M8jb9qjW5vW--3" edge="1">
          <mxGeometry width="50" height="50" relative="1" as="geometry">
            <mxPoint x="12" y="33" as="sourcePoint" />
            <mxPoint x="45" y="33" as="targetPoint" />
          </mxGeometry>
        </mxCell>
        <mxCell id="-JGs0fb6M8jb9qjW5vW--10" value="" style="group" vertex="1" connectable="0" parent="1">
          <mxGeometry x="1151" y="147" width="47" height="38" as="geometry" />
        </mxCell>
        <mxCell id="MN1CiRBbR8H1fu0ibKLE-30" value="&lt;font data-font-src=&quot;https://fonts.googleapis.com/css?family=Amiri&quot; face=&quot;Amiri&quot;&gt;شناسه&lt;/font&gt;" style="ellipse;whiteSpace=wrap;html=1;align=center;" parent="-JGs0fb6M8jb9qjW5vW--10" vertex="1">
          <mxGeometry width="47" height="38" as="geometry" />
        </mxCell>
        <mxCell id="cttu95DVh9DoGcVbJHbc-34" value="" style="endArrow=none;html=1;rounded=0;strokeColor=default;align=center;verticalAlign=middle;fontFamily=Helvetica;fontSize=11;fontColor=default;labelBackgroundColor=default;strokeWidth=3;" parent="-JGs0fb6M8jb9qjW5vW--10" edge="1">
          <mxGeometry width="50" height="50" relative="1" as="geometry">
            <mxPoint x="7" y="29" as="sourcePoint" />
            <mxPoint x="40" y="29" as="targetPoint" />
          </mxGeometry>
        </mxCell>
        <mxCell id="-JGs0fb6M8jb9qjW5vW--11" value="" style="group" vertex="1" connectable="0" parent="1">
          <mxGeometry x="957" y="215" width="47" height="38" as="geometry" />
        </mxCell>
        <mxCell id="MN1CiRBbR8H1fu0ibKLE-46" value="&lt;font data-font-src=&quot;https://fonts.googleapis.com/css?family=Amiri&quot; face=&quot;Amiri&quot;&gt;شناسه&lt;/font&gt;" style="ellipse;whiteSpace=wrap;html=1;align=center;" parent="-JGs0fb6M8jb9qjW5vW--11" vertex="1">
          <mxGeometry width="47" height="38" as="geometry" />
        </mxCell>
        <mxCell id="MN1CiRBbR8H1fu0ibKLE-47" value="" style="endArrow=none;html=1;rounded=0;strokeColor=default;align=center;verticalAlign=middle;fontFamily=Helvetica;fontSize=11;fontColor=default;labelBackgroundColor=default;strokeWidth=3;" parent="-JGs0fb6M8jb9qjW5vW--11" edge="1">
          <mxGeometry width="50" height="50" relative="1" as="geometry">
            <mxPoint x="7" y="32" as="sourcePoint" />
            <mxPoint x="40" y="32" as="targetPoint" />
          </mxGeometry>
        </mxCell>
        <mxCell id="-JGs0fb6M8jb9qjW5vW--12" value="" style="group" vertex="1" connectable="0" parent="1">
          <mxGeometry x="1311" y="264" width="47" height="38" as="geometry" />
        </mxCell>
        <mxCell id="cttu95DVh9DoGcVbJHbc-32" value="&lt;font data-font-src=&quot;https://fonts.googleapis.com/css?family=Amiri&quot; face=&quot;Amiri&quot;&gt;شناسه&lt;/font&gt;" style="ellipse;whiteSpace=wrap;html=1;align=center;" parent="-JGs0fb6M8jb9qjW5vW--12" vertex="1">
          <mxGeometry width="47" height="38" as="geometry" />
        </mxCell>
        <mxCell id="MN1CiRBbR8H1fu0ibKLE-31" value="" style="endArrow=none;html=1;rounded=0;strokeColor=default;align=center;verticalAlign=middle;fontFamily=Helvetica;fontSize=11;fontColor=default;labelBackgroundColor=default;strokeWidth=3;" parent="-JGs0fb6M8jb9qjW5vW--12" edge="1">
          <mxGeometry width="50" height="50" relative="1" as="geometry">
            <mxPoint x="6" y="28" as="sourcePoint" />
            <mxPoint x="39" y="28" as="targetPoint" />
          </mxGeometry>
        </mxCell>
        <mxCell id="-JGs0fb6M8jb9qjW5vW--15" style="edgeStyle=orthogonalEdgeStyle;rounded=0;orthogonalLoop=1;jettySize=auto;html=1;exitX=0.5;exitY=1;exitDx=0;exitDy=0;" edge="1" parent="1" source="MN1CiRBbR8H1fu0ibKLE-2" target="MN1CiRBbR8H1fu0ibKLE-2">
          <mxGeometry relative="1" as="geometry" />
        </mxCell>
        <mxCell id="-JGs0fb6M8jb9qjW5vW--24" value="" style="group" vertex="1" connectable="0" parent="1">
          <mxGeometry x="504" y="949" width="75" height="42" as="geometry" />
        </mxCell>
        <mxCell id="cttu95DVh9DoGcVbJHbc-7" value="&lt;font face=&quot;Amiri&quot;&gt;سمت&lt;/font&gt;" style="ellipse;whiteSpace=wrap;html=1;align=center;" parent="-JGs0fb6M8jb9qjW5vW--24" vertex="1">
          <mxGeometry y="8" width="34" height="34" as="geometry" />
        </mxCell>
        <mxCell id="cttu95DVh9DoGcVbJHbc-9" value="1, 2, 3, 4" style="text;html=1;align=center;verticalAlign=middle;whiteSpace=wrap;rounded=0;fontFamily=Helvetica;fontSize=11;fontColor=default;labelBackgroundColor=default;" parent="-JGs0fb6M8jb9qjW5vW--24" vertex="1">
          <mxGeometry x="24" width="51" height="15.5" as="geometry" />
        </mxCell>
        <mxCell id="-JGs0fb6M8jb9qjW5vW--27" value="" style="group" vertex="1" connectable="0" parent="1">
          <mxGeometry x="611" y="1097.5" width="80" height="53" as="geometry" />
        </mxCell>
        <mxCell id="cttu95DVh9DoGcVbJHbc-26" value="&lt;font face=&quot;Amiri&quot;&gt;مقدار&lt;/font&gt;" style="ellipse;whiteSpace=wrap;html=1;align=center;" parent="-JGs0fb6M8jb9qjW5vW--27" vertex="1">
          <mxGeometry x="5" y="18.5" width="37" height="38" as="geometry" />
        </mxCell>
        <mxCell id="cttu95DVh9DoGcVbJHbc-28" value="[1, 10]" style="text;html=1;align=center;verticalAlign=middle;whiteSpace=wrap;rounded=0;fontFamily=Helvetica;fontSize=11;fontColor=default;labelBackgroundColor=default;" parent="-JGs0fb6M8jb9qjW5vW--27" vertex="1">
          <mxGeometry x="20" width="60" height="30" as="geometry" />
        </mxCell>
        <mxCell id="cttu95DVh9DoGcVbJHbc-29" style="edgeStyle=none;shape=connector;rounded=0;orthogonalLoop=1;jettySize=auto;html=1;exitX=0.5;exitY=0;exitDx=0;exitDy=0;entryX=0.5;entryY=1;entryDx=0;entryDy=0;strokeColor=none;align=center;verticalAlign=middle;fontFamily=Helvetica;fontSize=11;fontColor=default;labelBackgroundColor=default;startFill=0;endArrow=none;" parent="-JGs0fb6M8jb9qjW5vW--27" source="cttu95DVh9DoGcVbJHbc-26" target="cttu95DVh9DoGcVbJHbc-28" edge="1">
          <mxGeometry relative="1" as="geometry" />
        </mxCell>
        <mxCell id="-JGs0fb6M8jb9qjW5vW--28" value="" style="group" vertex="1" connectable="0" parent="1">
          <mxGeometry x="853" y="987" width="52.5" height="41.5" as="geometry" />
        </mxCell>
        <mxCell id="MN1CiRBbR8H1fu0ibKLE-127" value="&lt;font face=&quot;Amiri&quot;&gt;سطح&lt;/font&gt;" style="ellipse;whiteSpace=wrap;html=1;align=center;" parent="-JGs0fb6M8jb9qjW5vW--28" vertex="1">
          <mxGeometry x="5" width="40" height="26.171171171171167" as="geometry" />
        </mxCell>
        <mxCell id="hgn5-UgbgFa5v8DhDo9k-12" value="&lt;font style=&quot;font-size: 9px;&quot;&gt;A, B, C&lt;/font&gt;" style="text;html=1;align=center;verticalAlign=middle;whiteSpace=wrap;rounded=0;fontFamily=Helvetica;fontSize=11;fontColor=default;labelBackgroundColor=default;" parent="-JGs0fb6M8jb9qjW5vW--28" vertex="1">
          <mxGeometry y="22.806306306306304" width="52.5" height="18.693693693693692" as="geometry" />
        </mxCell>
        <mxCell id="-JGs0fb6M8jb9qjW5vW--37" value="" style="group" vertex="1" connectable="0" parent="1">
          <mxGeometry x="1358" y="457" width="49" height="41" as="geometry" />
        </mxCell>
        <mxCell id="MN1CiRBbR8H1fu0ibKLE-115" value="&lt;font face=&quot;Amiri&quot;&gt;شناسه&lt;/font&gt;" style="ellipse;whiteSpace=wrap;html=1;align=center;" parent="-JGs0fb6M8jb9qjW5vW--37" vertex="1">
          <mxGeometry width="49" height="41" as="geometry" />
        </mxCell>
        <mxCell id="-JGs0fb6M8jb9qjW5vW--36" value="" style="endArrow=none;html=1;rounded=0;strokeColor=default;align=center;verticalAlign=middle;fontFamily=Helvetica;fontSize=11;fontColor=default;labelBackgroundColor=default;strokeWidth=3;" edge="1" parent="-JGs0fb6M8jb9qjW5vW--37">
          <mxGeometry width="50" height="50" relative="1" as="geometry">
            <mxPoint x="8" y="32" as="sourcePoint" />
            <mxPoint x="41" y="32" as="targetPoint" />
          </mxGeometry>
        </mxCell>
        <mxCell id="-JGs0fb6M8jb9qjW5vW--40" style="edgeStyle=orthogonalEdgeStyle;rounded=0;orthogonalLoop=1;jettySize=auto;html=1;exitX=0.5;exitY=1;exitDx=0;exitDy=0;" edge="1" parent="1" source="MN1CiRBbR8H1fu0ibKLE-123" target="MN1CiRBbR8H1fu0ibKLE-123">
          <mxGeometry relative="1" as="geometry" />
        </mxCell>
        <mxCell id="-JGs0fb6M8jb9qjW5vW--41" value="" style="group" vertex="1" connectable="0" parent="1">
          <mxGeometry x="748" y="649" width="86.5" height="38" as="geometry" />
        </mxCell>
        <mxCell id="K9c3699JtVxY8OUxqaeo-43" value="&lt;font face=&quot;Amiri&quot;&gt;نتیجه&lt;/font&gt;" style="ellipse;whiteSpace=wrap;html=1;align=center;" parent="-JGs0fb6M8jb9qjW5vW--41" vertex="1">
          <mxGeometry width="37" height="38" as="geometry" />
        </mxCell>
        <mxCell id="hgn5-UgbgFa5v8DhDo9k-10" value="&lt;div&gt;&lt;font style=&quot;font-size: 9px;&quot;&gt;مساوی&lt;/font&gt;&lt;/div&gt;&lt;div&gt;&lt;font style=&quot;font-size: 9px;&quot;&gt;برد میزبان&lt;/font&gt;&lt;/div&gt;&lt;div&gt;&lt;font style=&quot;font-size: 9px;&quot;&gt;برد میهمان&lt;/font&gt;&lt;/div&gt;" style="text;html=1;align=center;verticalAlign=middle;whiteSpace=wrap;rounded=0;fontFamily=Helvetica;fontSize=11;fontColor=default;labelBackgroundColor=default;" parent="-JGs0fb6M8jb9qjW5vW--41" vertex="1">
          <mxGeometry x="26.5" y="4" width="60" height="30" as="geometry" />
        </mxCell>
        <mxCell id="-JGs0fb6M8jb9qjW5vW--42" value="" style="group" vertex="1" connectable="0" parent="1">
          <mxGeometry x="788" y="695" width="37" height="38" as="geometry" />
        </mxCell>
        <mxCell id="cttu95DVh9DoGcVbJHbc-36" value="&lt;font face=&quot;Amiri&quot;&gt;شناسه&lt;/font&gt;" style="ellipse;whiteSpace=wrap;html=1;align=center;" parent="-JGs0fb6M8jb9qjW5vW--42" vertex="1">
          <mxGeometry width="37" height="38" as="geometry" />
        </mxCell>
        <mxCell id="cttu95DVh9DoGcVbJHbc-41" value="" style="endArrow=none;html=1;rounded=0;strokeColor=default;align=center;verticalAlign=middle;fontFamily=Helvetica;fontSize=11;fontColor=default;labelBackgroundColor=default;strokeWidth=3;" parent="-JGs0fb6M8jb9qjW5vW--42" edge="1">
          <mxGeometry width="50" height="50" relative="1" as="geometry">
            <mxPoint x="2.5" y="27.5" as="sourcePoint" />
            <mxPoint x="35.5" y="27.5" as="targetPoint" />
          </mxGeometry>
        </mxCell>
        <mxCell id="-JGs0fb6M8jb9qjW5vW--43" value="&lt;font data-font-src=&quot;https://fonts.googleapis.com/css?family=Amiri&quot; face=&quot;Amiri&quot; style=&quot;font-size: 12px;&quot;&gt;برگزار&lt;/font&gt;" style="shape=rhombus;perimeter=rhombusPerimeter;whiteSpace=wrap;html=1;align=center;fontFamily=Helvetica;fontSize=11;fontColor=default;labelBackgroundColor=default;" vertex="1" parent="1">
          <mxGeometry x="919.5" y="766.5" width="59" height="38" as="geometry" />
        </mxCell>
        <mxCell id="-JGs0fb6M8jb9qjW5vW--49" value="" style="group" vertex="1" connectable="0" parent="1">
          <mxGeometry x="724" y="481.56" width="53" height="51.879999999999995" as="geometry" />
        </mxCell>
        <mxCell id="K9c3699JtVxY8OUxqaeo-9" value="&lt;font face=&quot;Amiri&quot;&gt;نوع&lt;/font&gt;" style="ellipse;whiteSpace=wrap;html=1;align=center;" parent="-JGs0fb6M8jb9qjW5vW--49" vertex="1">
          <mxGeometry y="28.879999999999995" width="26" height="23" as="geometry" />
        </mxCell>
        <mxCell id="hgn5-UgbgFa5v8DhDo9k-16" value="&lt;div&gt;&lt;font style=&quot;font-size: 9px;&quot;&gt;اصلی، تعویضی&lt;/font&gt;&lt;/div&gt;" style="text;html=1;align=center;verticalAlign=middle;whiteSpace=wrap;rounded=0;fontFamily=Helvetica;fontSize=11;fontColor=default;labelBackgroundColor=none;" parent="-JGs0fb6M8jb9qjW5vW--49" vertex="1">
          <mxGeometry x="2.5" width="50.5" height="29.75" as="geometry" />
        </mxCell>
        <mxCell id="6hZY4R3OLh8B5wYLmfFH-6" value="" style="rounded=0;whiteSpace=wrap;html=1;fontFamily=Helvetica;fontSize=11;labelBackgroundColor=default;rotation=239;fillColor=#dae8fc;direction=west;strokeColor=#6c8ebf;gradientColor=none;opacity=50;" parent="1" vertex="1">
          <mxGeometry x="1127.6000000000001" y="615.9100000000001" width="328.81" height="71.09" as="geometry" />
        </mxCell>
        <mxCell id="-JGs0fb6M8jb9qjW5vW--72" value="&lt;font face=&quot;Amiri&quot;&gt;درصد مالکیت&lt;/font&gt;" style="ellipse;whiteSpace=wrap;html=1;align=center;" vertex="1" parent="1">
          <mxGeometry x="755" y="570" width="53" height="37" as="geometry" />
        </mxCell>
        <mxCell id="-JGs0fb6M8jb9qjW5vW--75" style="rounded=0;orthogonalLoop=1;jettySize=auto;html=1;exitX=0.5;exitY=1;exitDx=0;exitDy=0;endArrow=none;startFill=0;entryX=0.5;entryY=0;entryDx=0;entryDy=0;" edge="1" parent="1" source="-JGs0fb6M8jb9qjW5vW--74" target="MN1CiRBbR8H1fu0ibKLE-52">
          <mxGeometry relative="1" as="geometry">
            <mxPoint x="979.5294117647059" y="633.1764705882354" as="targetPoint" />
          </mxGeometry>
        </mxCell>
        <mxCell id="-JGs0fb6M8jb9qjW5vW--74" value="&lt;font face=&quot;Amiri&quot;&gt;میزبان است؟&lt;/font&gt;" style="ellipse;whiteSpace=wrap;html=1;align=center;" vertex="1" parent="1">
          <mxGeometry x="951.5" y="543" width="60.5" height="27" as="geometry" />
        </mxCell>
      </root>
    </mxGraphModel>
  </diagram>
</mxfile>
